<?xml version="1.0" standalone="no"?>
<!DOCTYPE svg PUBLIC "-//W3C//DTD SVG 20010904//EN"
 "http://www.w3.org/TR/2001/REC-SVG-20010904/DTD/svg10.dtd">
<svg version="1.0" xmlns="http://www.w3.org/2000/svg"
 width="1024.000000pt" height="1024.000000pt" viewBox="0 0 1024.000000 1024.000000"
 preserveAspectRatio="xMidYMid meet">

<g transform="translate(0.000000,1024.000000) scale(0.100000,-0.100000)"
fill="#000000" stroke="none">
<path d="M4835 9640 c3 -5 8 -10 11 -10 2 0 4 5 4 10 0 6 -5 10 -11 10 -5 0
-7 -4 -4 -10z"/>
<path d="M5575 9468 c26 -35 170 -155 156 -130 -5 10 -27 32 -48 48 -21 16
-58 47 -83 69 -32 29 -39 33 -25 13z"/>
<path d="M5080 9424 c0 -8 5 -12 10 -9 6 3 10 10 10 16 0 5 -4 9 -10 9 -5 0
-10 -7 -10 -16z"/>
<path d="M5910 9341 c0 -6 4 -13 10 -16 6 -3 7 1 4 9 -7 18 -14 21 -14 7z"/>
<path d="M5790 9179 c0 -21 19 -42 62 -68 20 -12 52 -39 72 -61 31 -35 36 -37
36 -19 0 24 -53 78 -114 116 -23 15 -44 31 -48 37 -5 7 -8 5 -8 -5z"/>
<path d="M4570 9150 c-49 -26 -117 -99 -125 -135 -6 -26 -3 -24 24 17 18 29
53 62 86 83 30 20 55 40 55 45 0 12 2 13 -40 -10z"/>
<path d="M4816 9152 c-2 -4 -6 -135 -7 -290 -1 -155 -6 -287 -11 -294 -4 -7
-8 26 -8 75 0 48 -4 87 -8 87 -4 0 -8 -10 -9 -22 -2 -28 -18 -36 -59 -33 -25
3 -37 -1 -44 -16 -12 -21 -9 -22 32 -19 53 3 68 -8 68 -51 0 -35 -4 -42 -30
-53 l-30 -12 38 -36 c52 -51 92 -68 178 -78 81 -9 90 -12 79 -31 -6 -8 -30
-10 -81 -6 -96 7 -168 40 -243 112 -39 37 -61 52 -64 43 -4 -8 -6 -7 -6 5 -1
9 -5 17 -11 17 -5 0 -10 17 -10 37 0 30 -3 34 -12 25 -8 -8 -13 -42 -13 -92 0
-43 -3 -76 -7 -74 -11 7 -70 137 -84 184 l-13 45 0 -48 c-1 -26 6 -64 14 -84
8 -20 14 -38 12 -40 -7 -6 -122 75 -168 119 -25 23 -60 63 -78 87 -36 51 -40
47 -11 -10 34 -65 86 -114 199 -189 96 -63 148 -110 121 -110 -5 0 -10 -7 -10
-15 0 -8 -5 -15 -11 -15 -5 0 -7 -5 -4 -10 4 -6 16 -8 28 -5 17 5 19 4 7 -4
-13 -9 -13 -11 3 -11 9 0 17 -5 17 -11 0 -5 -5 -7 -10 -4 -6 4 -26 8 -44 11
-44 5 -192 61 -231 87 -37 24 -94 88 -95 104 0 6 -4 14 -10 18 -20 13 13 -55
47 -94 47 -56 217 -139 312 -153 36 -5 82 -13 101 -16 l35 -6 -45 -4 c-25 -2
-80 2 -123 8 -60 9 -82 9 -93 -1 -11 -9 -14 -8 -14 2 -1 10 -4 9 -14 -3 -7
-10 -24 -18 -37 -19 l-24 0 23 -11 c19 -10 31 -28 17 -28 -15 0 -95 59 -128
94 -36 39 -37 40 -23 10 36 -76 123 -132 246 -160 81 -18 130 -15 229 16 35
11 66 18 68 16 7 -7 -150 -54 -217 -65 -36 -5 -101 -13 -146 -17 -73 -6 -86
-4 -133 19 -50 24 -51 24 -38 3 25 -38 111 -96 166 -112 37 -11 70 -14 108 -9
55 7 56 6 97 -33 48 -46 175 -142 188 -142 5 0 44 18 88 40 44 22 106 50 138
61 31 12 64 29 72 39 38 46 174 48 209 4 10 -13 23 -24 28 -24 15 0 187 -76
244 -109 l54 -30 85 71 c47 39 93 83 103 98 16 25 24 28 96 33 93 6 148 28
214 86 56 50 62 71 11 36 -20 -14 -40 -22 -45 -19 -5 3 -9 2 -9 -3 0 -9 -156
0 -247 15 -80 13 -205 44 -199 49 2 2 45 -6 96 -17 64 -16 105 -20 138 -15 77
11 174 44 217 73 41 29 105 105 105 125 0 7 -12 -3 -26 -21 -28 -35 -111 -102
-127 -102 -5 0 -6 7 -3 16 4 11 2 15 -8 11 -8 -3 -16 -1 -18 5 -2 5 -20 10
-41 10 -20 0 -34 4 -31 9 3 5 -4 9 -16 9 -12 0 -19 -3 -17 -7 3 -5 -41 -9 -96
-10 l-102 -2 85 14 c141 23 270 79 352 153 41 37 82 105 75 125 -2 7 -11 -4
-19 -24 -33 -77 -117 -136 -252 -178 -55 -17 -71 -19 -78 -9 -6 10 -8 10 -8
-1 0 -11 -3 -12 -11 -4 -13 13 -4 33 17 33 8 0 14 6 14 14 0 18 29 48 40 41 4
-3 11 2 14 11 3 8 2 13 -2 12 -47 -23 -60 -33 -55 -42 4 -8 3 -8 -6 0 -19 17
17 71 51 78 41 8 125 65 182 122 48 48 88 120 100 179 3 17 -7 3 -24 -34 -35
-74 -153 -197 -221 -230 -23 -12 -44 -21 -46 -21 -1 0 7 21 18 47 11 25 22 78
24 117 3 38 10 75 15 80 6 6 10 35 10 65 0 74 -17 49 -25 -39 -9 -84 -21 -134
-47 -192 -20 -45 -38 -62 -38 -37 0 8 -5 7 -16 -1 -8 -8 -14 -9 -13 -4 1 5 -1
17 -6 27 -4 10 -4 21 0 25 4 4 10 1 12 -6 3 -6 9 -9 14 -6 15 9 -10 34 -27 27
-8 -3 -14 1 -14 8 0 9 -5 7 -12 -5 -6 -11 -8 -43 -5 -80 3 -33 2 -70 -3 -81
-10 -23 -10 -23 -17 35 -2 25 -6 47 -8 49 -3 2 -34 -24 -70 -57 -36 -34 -78
-68 -93 -76 -42 -22 -141 -39 -188 -32 l-42 5 10 -32 c25 -81 29 -116 17 -139
l-13 -23 -6 30 c-6 29 -6 29 -13 -12 -5 -28 -12 -43 -22 -43 -8 0 -15 5 -15
12 0 9 -3 9 -12 0 -8 -8 -15 -6 -29 9 -17 19 -17 19 -24 -23 l-8 -43 -18 40
c-16 36 -18 37 -18 14 -1 -36 -13 -44 -28 -17 -10 19 -12 20 -13 5 0 -10 -4
-16 -9 -12 -5 3 -12 -3 -14 -12 -3 -10 -5 9 -6 41 -1 55 -2 58 -16 40 -8 -10
-15 -32 -16 -49 -1 -17 -3 -23 -6 -12 -2 9 -9 17 -14 17 -5 0 -9 12 -9 28 l-1
27 -14 -25 c-7 -14 -9 -26 -4 -28 12 -5 12 -42 0 -42 -5 0 -13 17 -18 38 -7
27 -14 36 -26 34 -9 -2 -17 3 -17 9 0 7 -8 5 -20 -6 -20 -18 -20 -17 -20 17 0
19 16 78 35 132 19 54 35 111 35 126 0 41 38 157 66 201 l24 38 -33 9 -32 8
41 7 c23 4 47 13 53 21 10 12 7 15 -15 18 -40 4 -39 22 1 41 20 10 34 21 30
26 -3 5 -32 30 -64 54 -43 32 -73 46 -108 51 -26 4 -56 9 -65 12 -15 5 -18 -1
-18 -36 0 -43 2 -45 61 -54 21 -4 53 -21 75 -41 25 -22 32 -33 19 -29 -11 4
-24 12 -30 19 -18 21 -53 35 -88 35 -61 0 -64 12 -41 172 9 67 40 98 98 98 40
0 45 -3 54 -29 15 -44 -4 -75 -50 -79 -32 -3 -39 1 -52 25 l-14 28 -7 -30
c-14 -68 -16 -65 23 -66 72 -2 107 3 130 17 20 13 22 23 22 90 0 41 -3 73 -8
70 -16 -9 -192 -15 -192 -6 0 6 -10 10 -22 10 -19 0 -20 -2 -8 -10 13 -8 12
-10 -2 -10 -10 0 -18 5 -18 10 0 12 -57 14 -64 2z m64 -252 c-1 -107 -3 -210
-2 -229 0 -22 -3 -29 -8 -20 -6 11 -16 390 -11 437 0 8 6 12 12 10 8 -3 11
-61 9 -198z m50 -159 c0 -51 3 -59 21 -64 15 -4 19 -2 15 9 -3 8 -3 21 0 29
13 33 48 6 51 -39 1 -28 0 -28 -43 -22 -45 6 -68 -8 -43 -26 12 -8 11 -9 -1
-5 -12 3 -16 23 -18 90 -2 55 1 87 8 87 6 0 10 -25 10 -59z m52 -163 c-5 -71
-10 -77 -11 -15 0 31 2 57 7 57 4 0 6 -19 4 -42z m-114 -19 c-10 -5 -18 -19
-18 -30 0 -11 -4 -17 -10 -14 -5 3 -10 17 -10 31 0 20 5 24 28 24 23 -1 24 -2
10 -11z m47 -24 c0 -14 -3 -25 -6 -25 -4 0 -9 11 -11 25 -3 15 -1 25 6 25 6 0
11 -11 11 -25z m-25 -25 c0 -5 -7 -10 -15 -10 -8 0 -15 5 -15 10 0 6 7 10 15
10 8 0 15 -4 15 -10z m963 -25 c-3 -9 -8 -14 -10 -11 -3 3 -2 9 2 15 9 16 15
13 8 -4z m152 -265 c-3 -5 -12 -10 -18 -10 -7 0 -6 4 3 10 19 12 23 12 15 0z
m-1548 -16 c-3 -3 -12 -4 -19 -1 -8 3 -5 6 6 6 11 1 17 -2 13 -5z m48 -4 c13
-6 15 -9 5 -9 -8 0 -22 4 -30 9 -18 12 -2 12 25 0z m315 -59 c0 -5 -7 -12 -16
-15 -14 -5 -15 -4 -4 9 14 17 20 19 20 6z m-40 -26 c0 -2 -10 -9 -22 -15 -22
-11 -22 -10 -4 4 21 17 26 19 26 11z m890 -35 c14 -11 21 -20 17 -20 -5 0 -20
9 -34 20 -14 11 -22 20 -17 20 5 0 20 -9 34 -20z m-767 -37 c-13 -2 -33 -2
-45 0 -13 2 -3 4 22 4 25 0 35 -2 23 -4z m655 0 c-16 -2 -40 -2 -55 0 -16 2
-3 4 27 4 30 0 43 -2 28 -4z m35 -68 c-7 -21 -13 -19 -13 6 0 11 4 18 10 14 5
-3 7 -12 3 -20z m-707 -36 c1 -16 -3 -29 -7 -29 -5 0 -9 17 -9 37 0 42 14 36
16 -8z m640 10 c-7 -45 -16 -48 -16 -6 0 21 5 37 11 37 6 0 8 -13 5 -31z
m-776 -4 c7 -8 8 -15 2 -15 -5 0 -15 7 -22 15 -7 8 -8 15 -2 15 5 0 15 -7 22
-15z m850 -4 c0 -6 -4 -13 -10 -16 -5 -3 -10 1 -10 9 0 9 5 16 10 16 6 0 10
-4 10 -9z m90 5 c0 -3 -4 -8 -10 -11 -5 -3 -10 -1 -10 4 0 6 5 11 10 11 6 0
10 -2 10 -4z"/>
<path d="M5160 9105 c0 -87 -8 -110 -48 -133 l-36 -20 64 -41 c56 -36 64 -39
75 -25 16 22 107 45 117 30 15 -21 8 -27 -26 -21 -20 4 -36 2 -41 -4 -3 -6
-10 -9 -15 -6 -4 3 -13 -2 -20 -10 -10 -12 -7 -15 12 -19 52 -11 156 -26 180
-26 40 0 70 30 72 74 2 46 -9 55 -33 25 -19 -23 -74 -30 -94 -10 -13 13 -20
93 -9 109 12 17 86 34 115 27 13 -4 31 -18 40 -33 l16 -27 1 48 0 47 -175 -7
c-168 -6 -175 -5 -175 13 0 18 7 19 100 16 l100 -4 0 27 0 26 -110 -2 -110 -1
0 -53z m84 -125 c-3 -38 -6 -42 -38 -45 -50 -6 -63 59 -17 82 35 17 58 2 55
-37z m74 -23 c2 -9 -3 -15 -12 -13 -21 3 -29 13 -21 26 9 15 29 7 33 -13z"/>
<path d="M5190 8969 c0 -5 5 -7 10 -4 6 3 10 8 10 11 0 2 -4 4 -10 4 -5 0 -10
-5 -10 -11z"/>
<path d="M5410 9135 c0 -23 3 -24 68 -27 l67 -3 3 -35 c2 -19 -1 -51 -7 -70
-5 -19 -11 -60 -12 -90 -3 -54 -4 -56 -48 -82 -40 -24 -43 -31 -15 -27 4 0 11
-5 15 -13 7 -10 9 -9 9 5 0 10 5 17 11 15 6 -2 10 -7 10 -11 -1 -4 -1 -14 -1
-23 0 -8 -4 -12 -10 -9 -5 3 -2 -7 8 -24 21 -37 12 -47 -27 -31 -50 20 -145
15 -186 -10 -30 -19 -35 -27 -35 -60 0 -34 19 -67 32 -54 3 3 9 -8 12 -23 4
-15 21 -59 39 -97 l31 -69 74 7 c40 3 95 15 121 27 55 23 109 73 92 83 -6 4
-11 34 -11 67 l0 59 50 0 c38 0 50 4 50 15 0 11 -12 15 -45 15 -38 0 -47 4
-54 22 -4 11 -6 32 -3 45 4 20 10 23 53 23 54 0 80 20 27 21 -76 2 -86 10 -80
63 4 35 4 35 60 38 80 4 83 28 3 28 l-61 0 0 40 0 40 55 0 c37 0 55 4 55 13 0
8 -15 11 -51 8 -28 -1 -55 1 -60 6 -4 4 -11 33 -15 63 -3 30 -8 57 -10 59 -4
5 -7 -152 -5 -364 1 -142 -6 -225 -18 -225 -4 0 -8 48 -9 107 -1 73 -6 109
-14 115 -10 6 -10 10 2 18 12 7 15 37 16 152 1 79 -1 160 -3 181 l-5 37 -89 0
c-88 0 -89 0 -89 -25z m150 -351 c0 -8 -5 -12 -10 -9 -6 4 -8 11 -5 16 9 14
15 11 15 -7z m-40 -204 c10 -18 8 -20 -18 -20 -35 0 -45 9 -31 27 16 19 37 16
49 -7z m-93 -82 c-3 -8 -6 -5 -6 6 -1 11 2 17 5 13 3 -3 4 -12 1 -19z m74 -7
c4 7 10 11 13 8 3 -3 -1 -14 -9 -25 -12 -16 -16 -17 -24 -4 -5 8 -7 19 -4 24
4 6 8 5 11 -3 4 -11 6 -11 13 0z m-74 -53 c-3 -8 -6 -5 -6 6 -1 11 2 17 5 13
3 -3 4 -12 1 -19z"/>
<path d="M4985 9100 c-10 -17 6 -58 26 -63 23 -6 25 6 4 27 -22 21 -18 29 10
24 28 -6 34 6 9 16 -23 9 -42 7 -49 -4z"/>
<path d="M5040 9059 c0 -5 5 -7 10 -4 6 3 10 8 10 11 0 2 -4 4 -10 4 -5 0 -10
-5 -10 -11z"/>
<path d="M5851 9050 c14 -31 19 -36 19 -24 0 6 -7 19 -16 30 -14 18 -14 18 -3
-6z"/>
<path d="M4705 9009 l-50 -6 45 -3 c25 -1 51 -2 58 -1 6 1 12 -3 12 -9 0 -5 4
-10 10 -10 13 0 2 28 -13 32 -7 2 -34 1 -62 -3z"/>
<path d="M5412 8978 c-18 -18 -14 -38 7 -38 27 0 37 19 19 36 -11 11 -16 12
-26 2z"/>
<path d="M4770 8925 c0 -12 -13 -15 -55 -15 -30 0 -55 -4 -55 -10 0 -5 22 -10
50 -10 36 0 52 -5 59 -17 12 -21 13 -20 15 30 1 20 -2 37 -6 37 -4 0 -8 -7 -8
-15z"/>
<path d="M6074 8888 c-10 -24 -34 -62 -51 -85 -36 -47 -38 -53 -23 -53 21 0
110 163 97 177 -2 2 -12 -16 -23 -39z"/>
<path d="M4330 8854 c15 -38 67 -111 85 -117 21 -9 19 7 -5 28 -11 10 -34 40
-51 66 -35 55 -43 61 -29 23z"/>
<path d="M4770 8805 c-8 -22 -16 -25 -55 -25 -57 0 -59 -16 -2 -23 23 -2 49
-8 58 -11 13 -6 16 1 16 39 1 51 -3 56 -17 20z"/>
<path d="M5315 8780 c-4 -6 8 -10 30 -10 22 0 34 4 30 10 -3 6 -17 10 -30 10
-13 0 -27 -4 -30 -10z"/>
<path d="M4447 8732 c6 -62 13 -67 13 -9 0 25 -4 48 -9 51 -5 4 -7 -15 -4 -42z"/>
<path d="M5986 8694 c-5 -14 -4 -15 9 -4 17 14 19 20 6 20 -5 0 -12 -7 -15
-16z"/>
<path d="M5886 8621 c-4 -7 -5 -15 -2 -18 9 -9 19 4 14 18 -4 11 -6 11 -12 0z"/>
<path d="M4458 8443 c7 -3 16 -2 19 1 4 3 -2 6 -13 5 -11 0 -14 -3 -6 -6z"/>
<path d="M4485 8430 c-3 -5 1 -10 9 -10 9 0 16 -7 16 -15 0 -16 12 -20 23 -9
4 4 -3 15 -15 25 -25 22 -25 22 -33 9z"/>
<path d="M8107 8365 c-47 -91 -102 -154 -178 -206 -110 -75 -528 -268 -678
-314 -22 -7 -23 -6 -15 21 5 16 9 53 9 82 0 41 -4 57 -19 67 -13 10 -17 23
-14 42 3 26 -3 22 -67 -43 -81 -82 -174 -133 -425 -234 -85 -34 -171 -71 -191
-81 -58 -29 -96 -80 -108 -146 -36 -184 -100 -337 -134 -316 -5 3 -7 2 -4 -4
8 -13 -21 -53 -39 -53 -8 0 -14 4 -14 10 0 5 7 7 15 4 8 -4 15 -1 15 5 0 6 -5
11 -10 11 -18 0 -66 53 -52 58 7 2 12 10 12 17 0 7 9 15 20 18 20 5 29 47 10
47 -5 0 -10 -4 -10 -9 0 -30 -134 -132 -225 -171 -55 -24 -140 -36 -149 -22
-3 6 -14 9 -24 7 -83 -17 -82 -17 -82 20 0 28 6 37 29 49 16 9 31 24 34 36 3
11 13 20 24 20 36 0 52 22 53 75 2 83 -10 135 -35 151 -25 17 -52 10 -58 -14
-2 -10 -4 11 -4 46 -1 34 -9 85 -19 112 l-18 50 -56 -5 c-40 -3 -51 -2 -40 6
11 8 9 9 -10 3 -14 -4 -31 -9 -39 -12 -8 -3 -12 -1 -8 5 4 6 0 14 -9 17 -12 4
-15 2 -10 -9 3 -8 1 -15 -5 -15 -5 0 -12 7 -15 15 -4 8 -11 15 -16 15 -6 0 -8
-6 -5 -14 9 -24 -42 -50 -93 -48 -67 2 -40 -5 110 -28 174 -27 180 -28 180
-41 0 -7 -24 -8 -75 -4 -41 4 -75 4 -75 1 0 -4 9 -17 20 -28 11 -12 16 -26 12
-30 -8 -8 -210 5 -343 22 -58 8 -113 7 -229 -5 -84 -8 -186 -15 -228 -15 l-75
0 6 28 6 27 -60 -3 c-36 -2 -59 0 -59 6 0 14 19 19 125 33 82 10 149 27 118
28 -7 1 -13 8 -13 16 0 8 -7 15 -15 15 -9 0 -18 7 -21 15 -5 11 -10 13 -19 5
-8 -7 -15 -7 -19 -1 -3 5 -24 7 -45 4 -22 -3 -56 -2 -75 1 -31 6 -35 10 -30
30 5 19 -3 27 -56 55 -106 56 -185 45 -113 -17 27 -23 27 -23 43 -3 13 18 18
18 45 7 17 -7 38 -23 49 -34 15 -18 17 -26 7 -53 -6 -17 -14 -61 -17 -97 -4
-37 -8 -74 -10 -82 -1 -8 -3 -17 -3 -19 -1 -2 -10 4 -20 13 -33 30 -55 17 -67
-39 -6 -32 -13 -45 -17 -35 -4 8 -5 -14 -3 -50 5 -69 26 -100 67 -100 11 0 23
-10 29 -24 5 -15 20 -27 39 -31 28 -6 31 -10 31 -46 l0 -39 -45 7 c-27 3 -50
1 -58 -5 -20 -17 -127 12 -218 59 -74 39 -98 60 -191 171 -13 15 -29 26 -35
23 -7 -2 -14 0 -14 5 -1 6 -2 15 -3 20 0 6 -4 9 -7 8 -3 -2 -13 3 -21 10 -13
10 -17 9 -23 -5 -11 -25 -6 -64 11 -87 8 -11 14 -28 14 -38 0 -11 5 -15 15
-12 8 4 12 10 9 15 -3 5 2 6 10 3 22 -9 29 -36 11 -46 -8 -5 -12 -14 -9 -20 4
-6 1 -9 -6 -6 -33 11 -91 157 -110 273 -22 139 -52 165 -295 260 -295 114
-412 181 -476 270 -18 25 -34 44 -35 42 -2 -2 0 -16 5 -33 6 -22 3 -35 -12
-55 -15 -21 -18 -38 -15 -80 2 -30 8 -62 12 -72 22 -47 -558 201 -722 310 -63
42 -109 94 -150 171 -17 31 -32 51 -32 43 0 -33 68 -136 126 -190 51 -48 96
-76 246 -149 101 -50 265 -123 365 -162 173 -68 216 -90 177 -90 -14 0 -15 -7
-10 -37 3 -21 9 -49 13 -62 6 -23 5 -24 -42 -17 -72 11 -314 72 -465 117 -223
67 -314 119 -382 219 -9 14 -17 20 -17 14 -1 -6 16 -35 37 -65 72 -103 201
-157 662 -275 189 -49 212 -61 225 -123 l7 -34 -118 6 c-162 9 -455 44 -529
62 -77 20 -125 52 -172 115 -46 61 -56 57 -17 -7 37 -59 100 -108 163 -127 63
-19 381 -62 544 -74 70 -5 131 -12 134 -16 3 -3 7 -16 7 -28 1 -13 5 -29 10
-36 4 -7 6 -15 3 -18 -9 -10 -454 -36 -523 -31 -80 6 -148 35 -201 86 -48 45
-41 21 8 -29 22 -23 62 -51 87 -63 55 -24 142 -27 443 -13 l187 8 18 -28 c10
-16 23 -32 29 -36 7 -5 6 -11 -1 -18 -14 -14 -397 -90 -453 -90 -52 0 -129 32
-178 74 -45 38 -42 16 3 -24 47 -41 107 -66 175 -75 52 -6 109 1 314 41 142
28 144 28 151 8 4 -11 21 -31 38 -46 17 -14 28 -29 24 -33 -3 -4 -66 -30 -140
-58 -115 -44 -143 -51 -208 -51 -69 -1 -81 2 -142 36 -38 21 -68 36 -68 33 0
-14 63 -58 108 -75 101 -38 194 -26 405 53 65 24 97 26 97 6 0 -5 11 -14 25
-19 31 -12 32 -41 3 -59 -63 -40 -188 -101 -229 -111 -41 -10 -54 -9 -120 14
-66 22 -71 23 -51 6 28 -23 112 -50 156 -50 37 0 122 31 191 70 50 28 106 49
93 35 -12 -13 16 -32 57 -39 l40 -8 -35 -28 c-19 -16 -60 -44 -90 -62 -49 -30
-61 -33 -127 -32 -40 1 -73 0 -73 -2 0 -2 23 -10 52 -19 66 -19 105 -10 219
56 83 47 129 61 129 39 0 -6 6 -10 13 -9 54 7 48 -22 -15 -72 -29 -23 -69 -48
-88 -56 -33 -15 -95 -14 -133 2 -12 5 -17 2 -17 -8 0 -39 126 -41 196 -4 27
15 56 28 64 29 8 2 28 15 45 30 19 18 41 28 60 28 40 0 75 -10 75 -22 0 -5
-23 -31 -50 -57 -28 -26 -50 -51 -50 -55 0 -19 50 -1 98 37 53 41 100 54 114
33 4 -6 12 -5 22 3 27 22 18 -2 -16 -43 l-31 -38 64 7 c35 3 71 9 81 11 9 3
19 0 23 -6 3 -6 47 -10 103 -10 l97 0 39 63 c21 34 41 67 45 73 4 7 27 10 64
6 56 -4 58 -5 97 -61 46 -65 49 -81 16 -81 -50 0 -56 -8 -41 -49 7 -21 22 -56
34 -78 l20 -40 -46 -7 c-25 -3 -266 -6 -534 -6 l-489 0 0 -491 c0 -340 -3
-496 -11 -505 -8 -10 -5 -15 15 -20 14 -3 26 -8 26 -11 0 -29 -74 -83 -115
-83 -25 0 -38 21 -28 47 6 14 1 15 -33 9 -21 -5 -47 -8 -57 -9 -13 -1 -30 -24
-52 -67 -63 -124 -80 -128 -46 -11 28 92 54 239 47 264 -3 13 4 31 20 49 19
24 24 41 24 84 0 37 -4 56 -14 60 -19 7 -18 131 1 161 9 13 19 23 24 23 5 0 9
-111 9 -248 l0 -247 33 0 c23 0 35 -6 41 -21 9 -20 11 -20 47 -6 l38 15 -4
279 c-2 194 -7 284 -15 292 -8 8 -10 7 -5 -4 3 -9 -3 -20 -15 -28 -29 -18 -27
5 5 52 13 20 21 36 16 36 -5 0 -12 -7 -15 -16 -6 -15 -8 -15 -26 1 -19 18 -20
17 -20 -3 0 -12 -5 -22 -11 -22 -6 0 -9 6 -6 14 3 8 0 17 -7 19 -10 4 -12 -1
-8 -15 3 -15 1 -19 -9 -16 -20 7 -26 80 -28 347 -1 129 -4 237 -6 240 -3 2 -5
-104 -5 -237 0 -231 -1 -242 -19 -242 -12 0 -21 -9 -25 -25 -7 -26 -41 -35
-48 -13 -7 21 -65 -10 -73 -39 -4 -19 -11 -24 -26 -20 -15 4 -23 -3 -34 -30
-8 -20 -15 -48 -15 -64 0 -15 -5 -40 -11 -56 -6 -15 -12 -75 -13 -133 -2 -100
-3 -108 -38 -174 -30 -55 -35 -73 -27 -88 15 -28 6 -31 -24 -8 -28 22 -167 82
-167 71 0 -3 19 -17 43 -30 89 -51 228 -173 213 -188 -2 -3 -32 18 -66 46 -33
28 -63 51 -66 51 -2 0 3 -12 13 -27 17 -26 17 -27 0 -14 -22 17 -21 14 4 -44
11 -25 19 -48 17 -50 -2 -2 -21 21 -43 52 -64 90 -105 133 -160 164 -94 54
-82 25 18 -40 39 -26 75 -60 98 -93 37 -54 53 -88 42 -88 -17 0 -73 45 -111
89 -44 51 -67 66 -55 35 5 -13 2 -15 -18 -9 -32 10 -85 37 -155 80 -33 19 -77
40 -99 46 -22 6 -56 23 -75 37 -62 46 -141 115 -136 119 2 2 28 -3 57 -11 29
-9 73 -16 97 -16 41 0 231 -47 291 -71 13 -5 26 -7 29 -4 3 3 0 5 -6 5 -7 0
-12 4 -12 9 0 5 26 7 58 6 31 -2 50 -1 41 2 -10 2 -19 13 -22 24 -3 11 -14 19
-26 19 -13 0 -21 6 -21 18 0 9 -15 25 -33 35 l-32 19 38 30 c50 41 68 76 61
124 -9 65 -12 69 -32 52 -31 -27 -92 -45 -92 -28 0 6 -15 10 -34 10 -58 0 -65
6 -59 53 7 56 19 69 61 65 25 -2 41 -11 56 -31 20 -27 20 -29 3 -58 -15 -28
-15 -30 -1 -27 20 4 29 18 46 78 10 34 18 45 33 45 12 0 28 15 42 40 20 34 22
49 17 96 -4 36 -2 59 5 63 6 4 11 16 11 28 0 17 -2 18 -15 8 -19 -16 -83 -8
-159 20 -44 17 -56 25 -51 39 4 15 -6 17 -97 18 -73 2 -111 -2 -132 -12 -34
-18 -60 -19 -87 -5 -25 14 -24 27 1 35 25 8 17 25 -12 25 -14 0 -18 5 -14 15
3 8 1 15 -4 15 -6 0 -10 7 -10 15 0 16 49 45 75 45 9 0 13 5 10 10 -4 6 -10 8
-14 5 -5 -2 -17 2 -27 10 -24 18 -38 19 -31 1 3 -7 -3 -20 -13 -29 -17 -14
-22 -14 -62 8 -132 72 -274 123 -306 110 -13 -5 -3 -12 38 -26 30 -11 62 -27
70 -37 9 -11 34 -21 56 -24 45 -6 178 -84 168 -99 -9 -15 -27 -10 -104 31 -79
42 -129 50 -150 25 -24 -28 -24 -107 -2 -157 12 -24 28 -51 37 -58 8 -7 15
-16 15 -21 0 -31 -63 26 -86 78 -18 42 -18 101 1 137 16 30 20 50 6 27 -5 -7
-26 -17 -47 -21 -22 -4 -52 -11 -67 -15 -21 -6 -27 -4 -25 6 3 16 -21 14 -67
-6 -31 -13 -28 -17 28 -29 38 -9 34 -20 -18 -51 -60 -35 -154 -125 -137 -132
22 -9 13 -30 -33 -81 -25 -28 -41 -53 -36 -56 5 -3 30 3 56 14 30 13 45 16 41
8 -2 -7 -26 -78 -52 -158 -26 -80 -53 -154 -60 -165 -33 -46 -3 -47 57 -1 l44
33 0 -161 c-1 -89 -4 -179 -9 -201 l-7 -40 29 31 c16 17 32 38 34 45 3 8 8 12
11 9 3 -3 -3 -37 -12 -75 -44 -170 -52 -208 -46 -214 4 -3 21 12 38 34 18 21
41 50 52 63 l20 23 0 -103 c0 -106 8 -158 25 -158 6 0 10 13 10 29 0 17 5 33
10 36 6 4 10 -6 10 -22 0 -64 67 -253 90 -253 5 0 10 10 12 23 2 17 21 -8 77
-103 41 -69 81 -132 88 -140 11 -12 13 -10 13 15 0 17 4 36 9 44 5 8 11 -25
16 -90 6 -89 10 -106 28 -121 20 -15 20 -20 9 -50 -6 -19 -12 -42 -12 -52 0
-10 -14 -37 -30 -62 -62 -89 -100 -194 -65 -181 34 14 22 -16 -25 -60 -65 -60
-88 -98 -110 -185 -28 -105 -102 -174 -218 -202 -50 -13 -53 -14 -22 -15 30
-1 32 -3 16 -12 -38 -23 -156 12 -198 58 -19 20 -48 85 -48 105 0 6 13 -8 29
-33 28 -45 75 -89 93 -89 6 0 -3 12 -20 28 -55 51 -76 107 -76 198 0 72 4 90
32 145 17 35 64 104 102 154 149 189 182 257 181 372 -1 147 -75 233 -199 233
-37 0 -137 62 -165 102 -14 19 -15 20 -10 3 6 -17 5 -18 -9 -7 -13 10 -17 10
-22 -4 -15 -40 8 -173 39 -220 16 -25 58 -48 107 -59 27 -5 28 -8 28 -61 0
-47 3 -55 17 -52 20 4 30 62 32 176 1 52 4 62 19 62 28 0 61 -28 83 -72 49
-96 7 -223 -125 -384 -152 -185 -191 -268 -190 -399 1 -144 62 -247 177 -301
84 -39 207 -30 288 22 23 14 42 24 43 22 1 -2 17 -59 35 -127 l32 -124 -35
-36 c-20 -20 -55 -72 -78 -116 l-43 -80 -44 3 c-27 2 -40 -1 -36 -8 9 -14 -48
-13 -63 2 -6 6 -15 9 -18 5 -4 -3 -13 -57 -21 -119 -8 -62 -18 -115 -23 -118
-9 -6 -16 -31 -24 -97 -6 -38 -4 -43 14 -43 24 0 24 6 5 -145 -11 -84 -19
-122 -30 -128 -24 -13 -18 -46 10 -57 33 -13 33 -57 0 -128 -33 -71 -33 -118
0 -148 14 -13 25 -32 25 -44 0 -25 27 -80 39 -80 4 0 20 -23 35 -50 15 -28 31
-48 35 -45 5 2 21 38 36 80 15 43 32 74 39 72 6 -2 33 -34 59 -72 26 -39 52
-74 57 -79 11 -11 49 67 50 102 0 14 8 26 23 31 18 8 27 4 49 -21 15 -16 30
-39 33 -49 10 -29 29 -18 39 22 8 33 12 36 75 52 77 20 176 77 354 205 163
116 248 163 383 208 96 32 124 37 234 41 92 4 149 1 215 -11 87 -17 291 -80
308 -96 10 -9 178 -1 190 9 10 9 -224 112 -328 144 -130 41 -202 51 -350 50
-159 -1 -250 -20 -371 -77 -97 -46 -160 -87 -355 -233 -145 -107 -273 -183
-309 -183 -7 0 -9 12 -5 33 6 29 1 41 -34 84 -33 43 -47 52 -83 58 -72 12
-132 59 -99 79 5 4 5 24 -1 48 -6 24 -10 99 -11 168 -1 160 8 182 100 243 38
25 120 68 183 96 67 30 125 63 138 79 13 15 47 51 75 81 48 51 51 56 57 125 4
39 14 87 23 106 22 50 44 144 52 222 6 60 10 69 36 86 27 17 35 17 92 5 34 -7
113 -16 175 -20 126 -7 121 -2 102 -91 -9 -40 -23 -61 -85 -126 -74 -77 -75
-78 -114 -71 -37 6 -41 5 -47 -18 -9 -39 4 -65 45 -92 27 -16 40 -33 45 -55 8
-40 148 -185 171 -177 19 8 75 -60 75 -92 0 -21 4 -23 28 -18 23 5 41 -3 85
-34 31 -22 57 -44 57 -48 0 -5 -42 -11 -92 -14 -114 -7 -182 -27 -372 -106
-151 -63 -199 -72 -246 -48 -34 17 -52 55 -38 80 10 20 11 20 29 -4 15 -20 21
-22 36 -13 43 27 14 84 -42 84 -45 0 -70 -31 -70 -85 0 -79 66 -135 158 -135
26 0 80 12 120 26 193 69 248 87 315 100 86 16 362 20 362 4 0 -14 26 -13 49
2 38 24 303 -87 481 -202 l85 -55 73 3 c39 2 72 7 72 11 0 10 -260 142 -278
141 -19 0 -142 70 -142 81 0 5 -6 9 -14 9 -8 0 -37 12 -64 26 -48 25 -51 28
-48 61 7 73 61 71 96 -3 16 -35 24 -44 33 -35 14 14 15 82 3 131 l-8 35 38
-36 c22 -19 64 -51 95 -71 30 -20 89 -67 130 -105 41 -37 120 -106 176 -151
l103 -83 67 3 68 3 -49 30 c-78 46 -191 133 -306 234 -112 98 -285 221 -313
221 -8 0 -19 -5 -22 -10 -12 -19 -31 -10 -42 19 -24 65 -119 87 -180 42 -23
-17 -36 -21 -45 -14 -74 58 -148 119 -225 187 l-91 81 41 44 c23 24 83 74 132
111 50 37 105 89 124 114 19 25 36 45 37 43 1 -1 25 -48 54 -104 91 -179 279
-395 488 -562 96 -76 396 -273 560 -366 l114 -65 194 0 c107 0 194 4 194 8 0
4 -17 14 -37 21 -102 36 -436 212 -628 331 -222 137 -325 217 -478 372 -178
179 -290 362 -341 553 -25 92 -53 291 -43 302 3 3 8 -5 11 -18 2 -13 12 -64
22 -114 104 -547 430 -875 1316 -1325 65 -33 155 -75 201 -95 77 -31 91 -34
168 -31 99 4 124 13 414 158 264 132 305 155 470 263 166 108 339 247 451 362
175 178 279 377 335 638 25 116 26 139 28 424 1 118 3 212 6 209 6 -6 7 -543
1 -573 -2 -11 -7 -40 -11 -65 -60 -382 -275 -667 -735 -979 -232 -158 -519
-316 -715 -396 -38 -16 -74 -32 -79 -37 -6 -4 79 -8 187 -8 228 0 191 -11 427
128 201 118 367 230 485 327 115 96 294 275 352 355 49 68 126 201 148 258 16
39 35 56 35 31 0 -25 74 -100 163 -167 50 -38 107 -86 126 -106 l34 -35 -29
-23 c-16 -13 -63 -55 -105 -94 -42 -38 -104 -89 -139 -113 -54 -36 -67 -41
-85 -31 -11 6 -31 17 -45 25 -49 27 -150 -20 -150 -71 0 -17 -21 -19 -37 -3
-19 19 -182 -90 -333 -221 -102 -89 -221 -178 -304 -228 l-70 -42 72 0 71 0
98 74 c54 40 134 105 178 144 44 39 115 97 159 129 43 32 87 64 96 71 17 12
17 9 13 -50 -4 -47 -1 -68 10 -83 17 -21 16 -23 42 52 2 6 15 19 30 29 30 19
55 6 53 -30 0 -11 2 -28 6 -37 5 -11 -8 -22 -54 -43 -33 -15 -60 -32 -60 -37
0 -5 -3 -8 -8 -6 -4 1 -21 -10 -37 -25 -16 -16 -46 -31 -65 -34 -19 -4 -37
-10 -40 -13 -3 -4 -25 -16 -50 -27 -25 -12 -72 -33 -105 -48 -33 -15 -82 -37
-110 -50 l-50 -23 88 -8 c71 -6 91 -5 105 7 9 8 56 38 104 67 182 108 416 203
444 180 11 -9 18 -8 31 2 12 11 52 14 157 14 183 -1 259 -17 488 -104 157 -60
253 -53 299 23 42 68 10 156 -56 156 -39 0 -58 -19 -53 -57 4 -36 42 -45 51
-12 5 19 8 20 21 9 23 -19 19 -47 -10 -77 -41 -41 -119 -30 -277 40 -160 71
-237 94 -356 108 -53 6 -97 13 -99 14 -2 1 26 23 60 48 49 35 70 44 91 40 23
-5 27 -2 27 18 0 25 46 79 67 79 7 0 13 4 13 9 0 5 10 13 22 17 36 11 138 121
145 155 4 21 18 39 45 56 43 29 54 56 38 97 -8 21 -15 26 -28 21 -45 -19 -52
-16 -115 46 -75 74 -93 107 -103 177 l-7 52 66 0 c75 0 207 16 254 31 29 9 37
7 68 -16 27 -21 35 -35 35 -59 0 -57 21 -148 52 -225 19 -50 28 -86 24 -106
-2 -16 -2 -24 1 -17 2 6 9 12 14 12 12 0 12 -47 -1 -55 -18 -11 -10 -24 55
-92 36 -37 65 -70 65 -75 0 -4 73 -44 163 -87 185 -91 210 -107 238 -162 16
-33 20 -59 20 -159 0 -65 -3 -141 -7 -168 -4 -32 -2 -52 5 -56 23 -14 10 -35
-35 -57 -25 -12 -56 -23 -68 -24 -11 -1 -26 -3 -33 -4 -6 0 -28 -21 -49 -47
-30 -36 -37 -52 -36 -85 2 -46 -5 -48 -80 -18 -62 24 -125 66 -268 178 -269
211 -467 291 -718 291 -190 0 -329 -34 -567 -141 l-120 -54 45 -7 c65 -10 155
-9 166 1 16 15 184 68 274 87 59 13 127 18 220 17 117 0 147 -4 225 -27 164
-49 305 -127 530 -293 90 -66 216 -130 272 -139 25 -4 46 -12 48 -18 2 -6 6
-23 9 -39 9 -37 21 -34 47 13 20 36 27 41 54 38 27 -3 32 -9 54 -70 13 -38 26
-68 30 -68 3 0 17 19 31 41 14 23 35 52 47 65 12 13 26 32 32 41 15 27 37 1
61 -73 12 -35 25 -64 29 -64 4 0 16 16 27 35 10 19 21 35 25 35 14 0 57 77 63
113 4 20 11 37 15 37 5 0 14 14 21 31 10 24 10 38 0 72 -6 23 -16 47 -21 53
-6 7 -12 35 -16 63 -5 47 -4 51 15 51 18 0 32 17 32 40 0 5 -8 17 -19 27 -14
14 -20 39 -25 108 -4 50 -9 107 -12 128 -5 31 -3 37 12 37 15 0 16 7 10 62 -3
34 -12 71 -20 82 -7 12 -16 55 -20 96 -11 121 -16 140 -37 140 -10 0 -21 -4
-24 -10 -3 -5 -15 -10 -26 -10 -10 0 -19 5 -19 10 0 6 -18 10 -40 10 -40 0
-40 0 -80 80 -22 44 -57 98 -76 120 l-36 40 32 124 33 125 36 -23 c55 -35 104
-47 182 -47 163 0 281 119 296 299 10 124 -38 233 -182 412 -88 109 -122 166
-140 233 -15 56 -16 72 -5 117 14 58 65 120 99 120 19 0 21 -6 22 -62 2 -160
35 -241 49 -120 5 45 6 47 51 59 60 17 87 48 106 119 14 57 11 164 -5 164 -4
0 -15 -12 -25 -27 l-17 -28 6 29 7 29 -37 -34 c-53 -48 -95 -69 -141 -69 -66
0 -115 -35 -153 -110 -31 -60 -33 -71 -30 -140 4 -101 38 -169 163 -335 54
-71 108 -153 121 -181 56 -119 38 -250 -43 -332 -43 -43 -44 -44 -12 -26 30
18 67 59 106 120 7 10 4 -5 -7 -35 -28 -78 -72 -118 -154 -142 -31 -9 -106 -2
-106 10 0 4 19 8 42 10 58 3 62 11 5 11 -60 0 -121 27 -180 81 -42 38 -50 53
-63 108 -19 86 -59 155 -112 199 -39 32 -42 37 -28 48 15 11 15 16 -3 65 -11
29 -36 79 -56 110 -19 31 -35 67 -35 79 0 11 -7 34 -15 51 -17 31 -13 49 9 49
17 0 25 31 27 100 1 57 16 125 18 85 3 -48 18 -45 45 7 16 29 51 88 79 131 45
70 52 77 63 62 7 -9 17 -14 22 -11 17 10 61 131 73 200 11 64 29 90 29 42 0
-14 5 -28 10 -31 20 -12 32 51 28 153 -2 56 -2 102 0 102 2 0 28 -26 58 -57
46 -48 55 -54 50 -33 -12 62 -47 227 -52 243 -10 31 11 18 34 -23 25 -43 49
-55 37 -17 -4 12 -10 105 -12 207 l-5 185 29 -26 c34 -32 82 -63 88 -57 2 2
-7 28 -21 58 -14 30 -38 97 -54 150 -15 52 -33 108 -39 123 -15 39 -15 39 25
22 63 -26 69 -19 24 37 -32 41 -40 57 -35 78 5 23 -2 34 -49 77 -30 28 -75 59
-100 69 -25 11 -46 22 -46 25 0 8 47 29 65 29 31 0 13 19 -22 26 -21 4 -42 13
-48 20 -12 16 -95 47 -95 36 0 -5 5 -13 12 -20 9 -9 7 -13 -6 -18 -10 -4 -22
-2 -29 5 -18 18 -29 13 -17 -8 15 -29 23 -89 16 -126 -6 -31 -69 -115 -86
-115 -5 0 -8 9 -7 20 1 11 7 20 14 20 7 0 13 7 13 15 0 9 7 18 15 21 8 4 15
14 15 24 0 11 4 22 10 25 14 9 3 90 -16 120 -23 35 -47 32 -145 -19 -60 -31
-90 -41 -100 -35 -11 8 -9 13 11 30 34 28 107 65 149 74 19 4 43 15 53 25 10
9 37 23 59 30 50 17 59 30 21 30 -36 0 -209 -69 -263 -105 -33 -21 -45 -24
-67 -17 -20 7 -26 15 -24 31 l2 22 -30 -21 -31 -22 33 -17 c32 -18 49 -41 29
-41 -6 0 -11 -6 -11 -14 0 -8 -7 -17 -16 -20 -15 -6 -15 -8 2 -27 16 -17 16
-22 4 -30 -32 -20 -63 -22 -92 -5 -23 14 -47 17 -116 14 -48 -1 -98 1 -110 6
-22 7 -23 6 -12 -14 7 -12 8 -26 3 -30 -11 -12 -152 -50 -183 -50 -14 0 -31 5
-38 12 -8 8 -10 -7 -6 -63 7 -102 10 -113 40 -149 20 -23 29 -28 39 -20 18 15
25 2 32 -59 5 -44 8 -50 35 -55 16 -3 27 -10 23 -16 -9 -15 -54 -12 -71 5 -21
20 -31 19 -39 -5 -13 -42 6 -101 46 -141 21 -21 39 -41 39 -43 0 -2 -16 -14
-36 -27 -23 -14 -32 -24 -24 -29 8 -5 3 -10 -12 -13 -14 -4 -30 -18 -36 -32
-11 -23 -10 -25 16 -26 15 -1 33 -1 41 0 8 2 10 -2 5 -10 -5 -8 -2 -11 8 -7
80 31 232 70 304 78 49 5 106 14 127 20 22 6 41 10 43 7 9 -9 -172 -147 -201
-153 -16 -4 -86 -35 -154 -70 -127 -66 -158 -76 -147 -48 4 11 -2 10 -22 -6
-15 -12 -29 -28 -32 -37 -3 -8 -9 -14 -14 -13 -4 1 -28 -17 -52 -41 -48 -47
-56 -41 -22 18 32 57 75 100 156 155 41 27 71 52 69 55 -3 2 -32 -9 -65 -26
-64 -32 -135 -104 -180 -180 -37 -63 -42 -29 -6 41 15 29 20 47 12 40 -8 -6
-18 -9 -21 -5 -4 3 -32 -16 -63 -42 -50 -44 -55 -45 -41 -19 21 41 68 82 167
150 47 32 76 54 65 50 -11 -5 -42 -17 -69 -27 -27 -10 -67 -32 -88 -49 -35
-29 -50 -24 -29 9 6 9 -4 39 -28 90 -33 71 -36 83 -37 176 -1 55 -6 113 -13
128 -6 16 -11 41 -11 57 0 47 -29 98 -52 92 -14 -3 -22 3 -30 25 -13 35 -63
60 -72 37 -8 -22 -32 -16 -44 11 -6 14 -18 25 -27 25 -13 0 -15 28 -16 203 -1
133 -4 187 -9 157 -5 -25 -9 -130 -10 -235 -1 -125 -5 -182 -11 -167 -5 13 -7
28 -3 33 3 5 0 9 -7 9 -9 0 -9 3 0 14 10 12 8 14 -15 12 -14 -2 -31 -10 -36
-19 -11 -20 2 -22 21 -4 9 8 12 8 7 0 -3 -6 -1 -13 6 -15 7 -3 9 -12 5 -22 -5
-12 -13 -15 -28 -11 -14 5 -27 0 -40 -14 -19 -20 -19 -21 -1 -21 10 0 23 5 30
12 9 9 12 9 12 0 0 -6 -8 -16 -17 -22 -16 -9 -15 -10 4 -5 19 5 22 3 16 -11
-4 -12 -3 -15 5 -10 8 5 12 0 12 -12 0 -20 -18 -32 -46 -32 -8 0 -14 4 -14 10
0 5 8 7 18 4 9 -4 4 3 -11 14 -16 11 -28 23 -27 27 1 3 -1 9 -4 12 -3 4 -6 0
-6 -8 0 -8 5 -20 12 -27 8 -8 8 -15 -1 -26 -10 -11 -14 -88 -17 -279 l-5 -263
37 -17 c20 -10 37 -17 38 -15 14 32 27 43 55 43 l31 0 0 243 c0 257 4 274 42
201 14 -28 16 -42 8 -69 -5 -19 -8 -42 -5 -51 3 -10 -1 -19 -11 -23 -23 -9
-14 -93 13 -132 14 -20 22 -53 26 -105 7 -80 27 -178 51 -247 26 -73 -2 -46
-49 47 -24 49 -49 92 -55 96 -6 4 -7 -1 -3 -10 5 -15 -1 -16 -43 -13 -48 3
-49 2 -49 -26 1 -28 0 -28 -45 -22 -35 5 -52 14 -77 41 -28 31 -34 34 -51 24
-16 -10 -27 -9 -61 8 -39 19 -40 21 -23 37 12 10 36 16 65 16 41 0 47 -3 47
-21 0 -14 5 -19 18 -17 16 3 17 36 17 515 l0 511 -52 4 -51 3 -97 -130 c-54
-71 -98 -136 -99 -145 -1 -12 13 -16 62 -18 34 -2 62 -5 62 -8 0 -13 -66 -61
-75 -54 -11 9 -105 -73 -105 -91 0 -5 -7 -9 -15 -9 -8 0 -15 -4 -15 -9 0 -15
-39 -19 -51 -5 -9 11 1 26 46 73 54 57 56 60 34 65 -13 3 -53 11 -88 18 l-65
13 135 111 c74 62 150 128 168 148 l35 36 -457 0 c-298 0 -457 3 -457 10 0 6
3 10 8 10 10 0 76 130 69 136 -3 3 -24 8 -46 11 -23 3 -41 9 -41 14 0 5 19 38
43 73 l42 64 63 -2 63 -1 38 -70 38 -70 181 0 c100 -1 182 1 182 4 0 3 -10 15
-22 28 -25 27 -22 32 29 44 30 7 42 5 60 -9 12 -9 37 -30 57 -46 28 -22 42
-27 63 -21 l28 7 -25 17 c-14 9 -40 30 -58 46 l-33 30 45 17 45 17 53 -42 c35
-27 45 -32 29 -14 -14 15 -22 27 -19 27 4 0 37 -18 75 -39 37 -22 84 -42 103
-45 39 -6 101 12 108 32 3 9 -3 10 -23 2 -62 -24 -141 0 -223 67 l-44 36 23
13 c13 7 28 10 33 7 5 -4 6 -1 3 4 -4 6 2 13 12 16 12 3 63 -17 126 -49 116
-59 164 -67 232 -39 48 20 39 25 -22 13 -67 -14 -115 0 -204 59 -39 26 -71 50
-71 53 0 11 51 31 61 24 5 -3 16 2 25 10 22 23 32 21 130 -26 109 -52 173 -60
256 -29 31 12 61 28 67 35 7 8 -13 4 -50 -11 -46 -19 -75 -24 -109 -21 -49 5
-148 47 -237 101 l-53 31 40 38 c21 21 45 38 52 38 7 0 74 -21 148 -47 117
-41 146 -47 215 -47 66 0 90 4 135 26 31 15 64 36 74 47 13 15 -1 10 -55 -17
-114 -57 -164 -52 -396 36 -51 19 -93 37 -93 41 1 3 19 19 41 34 32 22 38 31
29 42 -6 7 -7 16 -2 19 4 2 84 -11 176 -30 184 -37 294 -43 352 -19 43 18 124
75 124 87 0 5 -13 0 -29 -11 -53 -38 -135 -71 -176 -71 -43 0 -305 51 -393 76
l-54 15 26 26 c14 14 26 32 26 41 0 12 36 13 274 7 322 -9 341 -5 431 77 67
61 74 86 8 28 -79 -70 -93 -74 -242 -78 -122 -4 -460 13 -470 24 -8 8 32 84
48 89 9 2 72 9 141 15 246 20 462 54 534 84 42 18 118 86 147 133 33 53 16 50
-23 -5 -70 -96 -152 -130 -388 -157 -193 -22 -430 -39 -437 -31 -13 13 31 79
59 88 16 6 28 14 28 18 0 4 33 16 73 25 126 31 558 165 612 191 57 27 127 90
151 137 24 46 10 41 -26 -9 -18 -25 -56 -61 -84 -79 -46 -29 -240 -99 -431
-154 -66 -19 -329 -81 -344 -81 -4 0 -1 27 8 60 13 51 14 62 2 69 -17 11 -25
7 179 91 226 93 490 227 565 288 70 56 126 132 155 210 11 30 19 56 18 58 -2
1 -20 -30 -41 -71z m-958 -532 c-35 -36 -91 -66 -144 -76 l-30 -6 33 14 c17 8
32 19 32 25 0 5 14 17 31 26 23 11 29 12 23 2 -4 -7 12 6 37 30 52 49 67 37
18 -15z m-3831 -35 c2 -5 10 -8 17 -8 7 0 15 -7 19 -15 3 -8 0 -15 -6 -15 -21
0 -97 50 -109 71 -10 20 -9 20 33 -3 24 -13 45 -26 46 -30z m3892 -35 c0 -54
-50 -132 -101 -159 -50 -25 -227 -55 -215 -35 4 6 14 11 22 11 8 0 14 5 14 11
0 6 6 9 12 7 7 -3 20 5 30 16 14 17 19 18 27 7 5 -7 14 -10 20 -6 8 5 9 11 2
19 -7 9 -4 16 10 27 12 8 33 24 47 36 15 13 32 23 39 23 6 0 13 3 15 8 3 8 59
41 71 42 4 0 7 -3 7 -7z m-3970 -34 c0 -6 5 -7 12 -3 7 5 9 2 5 -9 -3 -9 1
-21 10 -29 14 -11 16 -10 11 9 -4 15 -2 20 8 16 7 -2 11 -10 8 -17 -3 -8 8
-18 25 -26 33 -13 39 -25 19 -33 -7 -3 2 -5 20 -4 20 0 38 -7 45 -17 7 -10 19
-16 27 -14 8 2 15 -4 15 -12 0 -41 -139 -15 -195 37 -59 52 -83 151 -30 123
11 -6 20 -15 20 -21z m157 25 c-3 -3 -12 -4 -19 -1 -8 3 -5 6 6 6 11 1 17 -2
13 -5z m98 -184 c3 -6 -1 -7 -9 -4 -18 7 -21 14 -7 14 6 0 13 -4 16 -10z
m-226 -46 c6 4 14 0 17 -8 4 -10 16 -14 37 -12 l31 4 -25 -20 c-19 -16 -20
-19 -5 -14 11 4 23 1 27 -5 10 -16 38 -20 60 -9 16 9 29 -4 29 -31 0 -14 -30
-11 -31 4 0 8 -2 8 -5 1 -11 -25 -135 20 -154 55 -13 25 -14 63 -1 42 5 -7 14
-10 20 -7z m3436 -3 c-17 -10 -46 -20 -64 -23 -30 -4 -32 -3 -16 8 10 7 21 11
25 9 5 -3 21 2 36 10 41 21 55 18 19 -4z m-1995 -35 c0 -56 15 -71 81 -80 90
-12 85 -2 91 -202 5 -154 8 -179 25 -202 24 -33 98 -77 178 -107 48 -18 60
-27 59 -44 -3 -93 -5 -114 -9 -109 -3 2 -5 25 -6 51 -2 45 -3 46 -50 66 -26
12 -53 21 -59 21 -6 0 -38 18 -71 41 -82 55 -89 75 -89 242 0 195 1 191 -77
211 -36 9 -72 21 -79 27 -16 13 -20 129 -4 129 6 0 10 -20 10 -44z m2430 24
c0 -46 -94 -90 -189 -90 -43 1 -45 2 -27 15 11 8 25 15 30 15 6 0 4 -5 -4 -10
-8 -5 -10 -10 -5 -10 11 0 38 27 44 44 1 5 -3 13 -11 18 -9 7 -6 8 11 4 14 -3
30 -1 36 4 6 5 28 11 49 14 21 3 41 7 44 10 11 12 22 5 22 -14z m-3387 1 c4
-1 7 -5 7 -10 0 -6 -12 -6 -31 -1 -42 12 -51 22 -14 16 17 -2 33 -5 38 -5z
m2847 -11 c0 -5 -5 -10 -11 -10 -5 0 -7 5 -4 10 3 6 8 10 11 10 2 0 4 -4 4
-10z m-900 -39 c0 -50 -16 -66 -82 -81 -90 -21 -84 -8 -91 -206 -6 -206 -7
-207 -107 -260 -35 -19 -67 -40 -71 -46 -4 -6 -24 -14 -45 -17 l-39 -6 -6 -70
-5 -70 -2 81 -2 81 108 54 c140 71 139 69 148 296 l7 172 56 12 c74 15 101 29
101 50 0 24 10 49 21 49 5 0 9 -18 9 -39z m-413 -42 c113 -55 139 -260 45
-358 -86 -90 -235 -75 -296 29 -32 53 -30 208 2 268 41 77 157 106 249 61z
m1443 0 c0 -26 -38 -48 -93 -55 -39 -6 -47 -4 -47 9 0 9 5 19 11 23 8 5 8 9
-1 14 -20 12 26 23 47 11 13 -6 24 -5 35 3 25 18 48 15 48 -5z m-3039 -19 c6
0 7 5 4 10 -3 6 3 10 14 10 11 0 22 -4 25 -8 3 -5 21 -9 41 -10 19 -1 45 -7
58 -14 21 -12 20 -13 -20 -21 -71 -16 -154 17 -153 60 0 4 5 0 11 -9 5 -10 15
-18 20 -18z m439 -40 c0 -5 -2 -10 -4 -10 -3 0 -8 5 -11 10 -3 6 -1 10 4 10 6
0 11 -4 11 -10z m-806 -15 c4 -12 17 -14 57 -9 39 4 49 3 43 -7 -5 -9 -2 -10
9 -6 10 4 17 2 17 -4 0 -6 6 -9 14 -6 7 3 19 0 26 -6 10 -9 11 -9 5 2 -6 11
-4 13 9 8 13 -5 17 -3 13 7 -3 8 1 17 9 20 18 7 54 -10 54 -25 0 -6 7 -9 15
-6 8 4 17 2 20 -2 14 -23 -151 -39 -224 -21 -50 12 -101 43 -101 61 0 15 27
10 34 -6z m2553 -7 c-3 -8 -6 -5 -6 6 -1 11 2 17 5 13 3 -3 4 -12 1 -19z
m1202 13 c11 -1 8 -8 -9 -26 -28 -29 -40 -32 -41 -7 0 13 -2 14 -6 2 -3 -8
-12 -21 -21 -27 -19 -15 -92 -17 -92 -3 0 6 -5 10 -11 10 -5 0 -8 -3 -5 -8 2
-4 -18 -5 -46 -2 -43 4 -52 8 -54 28 -3 15 1 22 14 23 28 2 47 -2 53 -13 4 -6
12 -7 19 -3 9 5 11 4 6 -3 -11 -19 9 -14 38 9 14 11 26 16 26 10 0 -6 -4 -11
-10 -11 -5 0 -10 -5 -10 -10 0 -7 6 -7 18 -1 13 7 23 6 30 -1 9 -9 12 -9 13 0
1 11 4 24 8 36 1 4 26 3 80 -3z m-3271 -73 c34 -17 26 -28 -20 -28 -46 1 -84
22 -73 40 8 12 56 6 93 -12z m2856 -3 c-10 -8 -23 -14 -29 -14 -5 0 -1 6 9 14
11 8 24 15 30 15 5 0 1 -7 -10 -15z m-2494 -25 c0 -5 -2 -10 -4 -10 -3 0 -8 5
-11 10 -3 6 -1 10 4 10 6 0 11 -4 11 -10z m-523 -35 c18 -19 -3 -33 -70 -46
-65 -13 -137 -5 -168 19 -19 16 -19 18 -2 19 40 2 177 23 181 28 8 7 44 -5 59
-20z m3244 9 c38 -4 69 -11 69 -17 0 -5 6 -5 14 2 8 7 17 8 20 3 26 -42 -177
-68 -217 -28 -7 7 -18 11 -26 8 -10 -3 -8 3 5 21 13 18 26 25 42 22 13 -2 55
-7 93 -11z m-2771 -4 c0 -5 -2 -10 -4 -10 -3 0 -8 5 -11 10 -3 6 -1 10 4 10 6
0 11 -4 11 -10z m48 -55 c-3 -3 -9 2 -12 12 -6 14 -5 15 5 6 7 -7 10 -15 7
-18z m2019 -41 c-3 -3 -12 -4 -19 -1 -8 3 -5 6 6 6 11 1 17 -2 13 -5z m-2557
-31 c0 10 6 13 20 10 24 -6 25 -10 4 -31 -22 -22 -131 -24 -144 -2 -11 19 -8
22 31 26 18 2 34 6 37 8 2 3 15 -2 28 -11 21 -14 24 -14 24 0z m665 -11 c-3
-3 -11 0 -18 7 -9 10 -8 11 6 5 10 -3 15 -9 12 -12z m2524 7 c14 8 22 8 26 1
4 -6 15 -8 26 -5 26 9 24 0 -6 -19 -34 -22 -91 -13 -91 14 0 14 4 16 13 9 8
-7 18 -7 32 0z m-64 -9 c3 -5 -1 -10 -10 -10 -9 0 -13 5 -10 10 3 6 8 10 10
10 2 0 7 -4 10 -10z m-2140 -122 c-8 -30 -23 -71 -35 -90 -18 -31 -19 -37 -5
-48 8 -7 15 -19 15 -26 0 -8 9 -14 19 -14 11 0 23 -4 26 -10 3 -5 1 -10 -4
-10 -8 0 -7 -7 1 -20 7 -10 14 -17 16 -15 6 6 32 -21 32 -33 0 -21 242 -231
361 -312 l89 -61 0 30 c0 16 5 33 10 36 6 4 10 -15 10 -51 0 -56 0 -56 -22
-42 -13 9 -48 30 -78 48 -215 131 -444 328 -524 452 -17 26 -17 27 23 80 23
29 48 75 57 101 21 64 27 55 9 -15z m1236 -95 l32 -42 -29 -43 c-42 -62 -168
-192 -246 -254 -65 -52 -358 -248 -362 -242 -1 2 1 71 4 153 l6 150 2 -132 c1
-73 6 -133 11 -133 4 0 28 15 52 33 24 18 57 39 73 47 59 30 353 305 420 393
l27 35 -36 64 c-19 36 -35 76 -35 89 0 18 6 12 25 -26 13 -27 38 -69 56 -92z
m-917 -45 c9 -12 14 -24 12 -26 -7 -7 -46 23 -46 35 0 20 17 15 34 -9z m556 8
c0 -15 -24 -28 -34 -19 -7 7 13 33 25 33 5 0 9 -6 9 -14z m-831 -35 c-15 -5
-22 6 -14 19 6 9 10 9 16 -1 5 -8 4 -15 -2 -18z m274 -96 c58 -50 83 -85 61
-85 -15 0 -164 144 -164 158 0 17 -8 23 103 -73z m627 66 c0 -5 -30 -35 -67
-67 -101 -86 -103 -88 -103 -77 0 13 23 38 94 101 59 51 76 61 76 43z m-660
-156 c63 -63 121 -115 128 -115 8 0 12 -5 10 -12 -8 -22 -28 -20 -51 7 -67 82
-96 110 -152 155 -35 28 -65 57 -69 65 -14 37 28 6 134 -100z m357 3 c-2 -13
-4 -5 -4 17 -1 22 1 32 4 23 2 -10 2 -28 0 -40z m163 -98 c-30 -37 -60 -53
-60 -30 0 6 4 10 9 10 5 0 24 16 42 35 44 46 50 36 9 -15z m-273 -72 c-3 -7
-5 -2 -5 12 0 14 2 19 5 13 2 -7 2 -19 0 -25z m-2937 -44 c0 -8 -6 -14 -14
-14 -7 0 -19 -6 -25 -14 -14 -17 -71 -27 -71 -12 0 22 18 38 56 51 42 14 54
12 54 -11z m6057 4 c61 -43 53 -63 -18 -42 -31 9 -48 21 -52 33 -10 38 21 42
70 9z m-5782 -52 c20 -15 15 -43 -10 -53 -24 -9 -65 14 -65 36 0 31 43 41 75
17z m5493 1 c15 -18 -12 -57 -38 -57 -26 0 -48 40 -34 62 8 13 61 9 72 -5z
m327 -35 c-8 -9 -38 -12 -48 -5 -6 3 -2 12 8 19 14 10 22 11 32 2 7 -6 11 -13
8 -16z m-6172 1 c-18 -9 -36 -13 -40 -9 -11 10 18 26 47 25 24 0 23 -1 -7 -16z
m271 -8 c40 -31 83 -32 133 -4 33 19 43 20 91 10 29 -6 73 -19 98 -30 35 -16
44 -25 44 -45 0 -19 -8 -27 -36 -36 -19 -7 -50 -9 -67 -6 -49 10 -104 40 -100
53 3 7 -3 16 -12 19 -11 4 -28 -5 -51 -27 -31 -30 -41 -34 -84 -32 -111 5
-174 81 -90 110 19 7 36 12 38 12 2 1 18 -10 36 -24z m5672 10 c73 -30 18 -96
-86 -103 -59 -4 -62 -3 -96 32 -38 40 -65 48 -57 17 6 -22 -15 -36 -85 -56
-56 -16 -82 -14 -113 7 -20 13 -22 18 -12 40 23 50 228 86 258 45 7 -9 25 -17
40 -17 28 0 85 28 85 42 0 12 27 9 66 -7z m-6234 -42 c-9 -3 -10 -9 -3 -17 14
-17 9 -38 -17 -70 -37 -48 -24 -58 17 -13 39 41 40 41 37 15 -1 -15 -7 -33
-12 -40 -34 -46 -41 -81 -34 -160 4 -35 13 -44 43 -39 11 2 15 -15 21 -94 l5
-70 -25 30 c-52 64 -80 195 -78 367 0 57 21 99 48 97 6 0 5 -3 -2 -6z m4457
-19 c17 -14 31 -29 31 -33 0 -4 -19 -13 -41 -20 -23 -7 -52 -23 -66 -37 -30
-30 -31 -30 -26 0 3 13 0 27 -6 30 -19 12 -12 44 15 65 35 28 56 26 93 -5z
m2297 -10 c12 -27 13 -60 9 -147 -7 -131 -23 -194 -64 -258 -42 -67 -49 -67
-38 2 5 32 14 59 18 59 5 0 9 -5 9 -11 0 -5 5 -7 11 -4 5 4 9 17 8 28 -2 12 5
37 15 56 16 31 17 41 6 89 -6 29 -21 74 -32 99 -25 57 -15 68 23 24 16 -19 31
-32 34 -29 7 7 -16 58 -26 58 -5 0 -8 16 -7 35 2 45 15 45 34 -1z m-300 5 c32
-11 72 -22 87 -24 70 -8 124 -124 83 -178 -12 -16 -15 -13 -24 25 -13 51 -51
89 -139 142 -54 32 -84 56 -70 56 2 0 30 -9 63 -21z m-6126 6 c0 -2 -29 -21
-65 -41 -82 -45 -132 -91 -140 -130 -12 -53 -15 -58 -27 -46 -14 14 -12 96 3
124 17 33 49 58 73 59 12 0 41 9 66 19 42 18 90 26 90 15z m3908 -31 c15 -9
35 -26 45 -39 17 -24 17 -24 -29 -44 -26 -12 -53 -21 -60 -21 -8 0 -14 -8 -14
-17 0 -10 -9 -1 -20 20 -25 46 -25 58 1 91 24 30 40 32 77 10z m2186 -39 c36
-47 86 -93 86 -78 0 4 -9 22 -19 39 l-19 32 30 -12 c37 -14 62 -48 78 -104 10
-38 9 -49 -10 -86 -11 -24 -30 -52 -41 -62 -28 -25 -35 -11 -49 95 -14 106
-19 115 -59 119 -42 4 -67 51 -52 100 4 12 26 -6 55 -43z m-6064 6 c0 -30 -32
-62 -69 -67 l-34 -6 22 29 c17 22 61 57 79 62 1 1 2 -8 2 -18z m-117 -23 c-14
-18 -24 -78 -14 -78 27 0 11 -178 -16 -187 -17 -6 -73 84 -73 117 0 64 38 131
85 150 28 12 29 12 18 -2z m4281 -21 c26 -39 47 -110 37 -120 -6 -6 -24 -10
-42 -9 -17 0 -42 -3 -54 -8 -22 -8 -25 -5 -45 47 -25 66 -22 79 22 98 47 20
65 18 82 -8z m-1837 -28 c126 -39 211 -89 348 -204 44 -37 103 -80 130 -96 33
-19 43 -29 30 -29 -34 0 -120 46 -215 114 -171 123 -306 170 -485 170 -164 0
-269 -39 -445 -164 -113 -80 -150 -100 -185 -100 -32 0 -33 16 0 24 14 4 62
36 107 73 195 157 300 211 463 236 56 9 184 -3 252 -24z m1398 -4 c33 -32 31
-45 -4 -45 -15 0 -40 -9 -54 -20 -17 -14 -32 -18 -45 -13 -19 7 -19 11 -7 47
8 21 20 43 27 47 24 16 59 9 83 -16z m715 6 c0 -6 -4 -13 -10 -16 -5 -3 -10 1
-10 9 0 9 5 16 10 16 6 0 10 -4 10 -9z m-467 -28 c8 -10 25 -42 37 -72 21 -55
16 -81 -16 -81 -7 0 -19 -9 -28 -21 -22 -32 -46 -19 -82 46 -43 77 -43 100 -1
125 40 25 69 25 90 3z m-3460 -31 c-3 -12 -9 -22 -14 -22 -12 0 -11 7 2 32 13
25 20 19 12 -10z m5132 13 c34 -14 57 -48 48 -72 -5 -13 -56 -36 -81 -36 -89
0 -106 13 -90 70 13 47 64 63 123 38z m-4639 -3 c6 -4 15 -18 19 -31 7 -22 5
-23 -16 -18 -13 4 -34 7 -46 7 -16 0 -23 6 -23 19 0 24 43 39 66 23z m-1017
-77 c6 -22 29 -69 51 -105 22 -36 40 -68 40 -71 0 -14 -70 10 -103 35 -71 54
-93 126 -57 184 19 32 21 32 39 15 11 -10 24 -36 30 -58z m5051 62 c0 -18 -59
-42 -72 -29 -16 16 12 41 45 42 15 0 27 -5 27 -13z m949 -55 l-13 -37 -6 35
c-3 19 -4 43 -2 52 4 15 6 16 19 3 12 -13 13 -21 2 -53z m97 43 c20 -31 15
-102 -10 -140 -22 -33 -86 -75 -130 -85 -40 -9 -41 -13 17 73 40 58 66 117 67
149 0 15 12 25 32 27 4 1 15 -10 24 -24z m-6048 -35 c-1 -24 -4 -28 -15 -19
-14 12 -18 41 -7 52 13 12 23 -3 22 -33z m1172 30 c0 -5 -2 -10 -4 -10 -3 0
-8 5 -11 10 -3 6 -1 10 4 10 6 0 11 -4 11 -10z m2540 2 c0 -7 -30 -25 -82 -50
-5 -2 -8 3 -8 10 0 15 30 34 65 41 11 3 21 5 23 6 1 0 2 -3 2 -7z m-1392 -40
c114 -42 179 -85 323 -208 68 -59 139 -116 157 -126 38 -24 39 -31 10 -50 -13
-9 -38 -29 -57 -47 -18 -17 -37 -31 -42 -31 -5 0 -9 -6 -9 -13 0 -11 -41 -43
-48 -38 -2 1 -12 -7 -21 -18 -10 -12 -22 -21 -27 -21 -5 -1 -20 -14 -34 -30
-13 -17 -30 -30 -37 -30 -7 0 -13 -4 -13 -9 0 -10 -7 -14 -96 -62 -63 -34
-173 -71 -190 -65 -7 3 -14 1 -16 -4 -2 -4 -25 -11 -52 -15 -43 -7 -48 -6 -43
9 5 13 -1 16 -41 15 -45 -1 -45 -1 -14 -9 59 -14 49 -23 -18 -16 -35 4 -69 10
-74 14 -6 3 -21 7 -33 8 -64 7 -240 113 -326 197 -27 26 -52 47 -55 47 -2 0
-36 29 -73 65 -38 36 -74 65 -79 65 -22 0 -8 21 28 39 20 11 80 58 132 106
120 109 199 166 286 207 101 47 155 58 274 54 87 -3 119 -8 188 -34z m1205
-20 c15 -15 27 -31 27 -35 0 -7 -78 -47 -93 -47 -4 0 -5 10 -2 22 6 17 4 20
-9 15 -27 -11 -31 21 -6 49 30 31 50 30 83 -4z m251 -20 c13 -21 31 -60 40
-87 14 -40 15 -51 4 -61 -17 -17 -69 -27 -84 -17 -17 13 -84 127 -84 144 0 27
39 53 87 58 7 0 24 -16 37 -37z m524 -14 c20 -17 14 -63 -12 -87 l-25 -23 -27
21 c-15 11 -32 21 -39 21 -15 0 -25 22 -25 55 0 16 7 25 23 28 30 6 89 -2 105
-15z m-158 -24 c0 -19 -5 -44 -10 -55 -12 -22 -50 -26 -50 -5 0 10 -12 14 -43
14 -48 -1 -67 6 -67 26 0 30 56 52 138 55 30 1 32 -1 32 -35z m-3957 -118 c50
-58 51 -59 22 -52 -54 14 -135 57 -147 79 -16 30 -19 90 -5 99 8 5 24 -6 45
-29 18 -21 56 -65 85 -97z m760 102 c27 -31 16 -43 -41 -43 -41 0 -52 4 -56
18 -2 10 4 27 15 38 23 23 55 18 82 -13z m3877 16 c0 -8 -4 -12 -10 -9 -5 3
-10 10 -10 16 0 5 5 9 10 9 6 0 10 -7 10 -16z m237 -13 c16 -25 4 -37 -42 -44
-52 -8 -71 3 -55 32 21 40 75 47 97 12z m821 0 c5 -30 -14 -74 -41 -99 -20
-18 -119 -62 -141 -62 -5 0 11 22 35 48 24 27 61 70 82 96 41 49 60 54 65 17z
m-6168 -49 c0 -20 -5 -44 -10 -52 -7 -11 -10 2 -10 43 0 36 4 56 10 52 6 -3
10 -23 10 -43z m6515 -23 c-10 -58 -27 -34 -19 25 5 37 9 44 16 32 5 -10 7
-35 3 -57z m-2607 2 c17 -32 32 -67 32 -78 0 -42 -47 -57 -79 -25 -26 25 -71
94 -71 109 0 13 56 53 75 53 6 0 25 -26 43 -59z m-639 -553 l1 -508 284 0
c191 0 287 4 291 11 4 6 13 8 20 5 31 -12 58 29 71 109 2 11 8 34 14 50 8 24
9 15 4 -40 -3 -38 -8 -85 -11 -102 -4 -28 -2 -33 15 -33 12 0 23 4 26 8 2 4
15 93 27 198 12 104 25 192 28 195 3 3 25 4 49 1 l42 -4 0 -199 c0 -192 1
-199 20 -199 19 0 20 7 20 130 l0 130 59 0 59 0 -3 -77 c-1 -43 1 -86 6 -95 6
-11 5 -18 -4 -21 -7 -3 -5 -6 5 -6 11 -1 18 -11 20 -28 2 -22 9 -29 32 -31 25
-3 28 -1 23 17 -8 30 8 35 21 6 l12 -25 197 -1 c109 -1 209 -4 223 -8 l25 -7
-23 -8 c-13 -4 -365 -9 -782 -10 -417 -1 -761 -4 -765 -8 -3 -3 -8 -268 -9
-588 -3 -412 -7 -585 -15 -593 -6 -6 -11 -16 -11 -21 0 -6 5 -4 10 4 8 12 10
11 10 -7 0 -12 -4 -25 -10 -28 -5 -3 -10 -11 -10 -16 0 -6 5 -7 10 -4 6 3 10
1 10 -4 0 -6 -4 -11 -10 -11 -5 0 -10 -10 -11 -22 -1 -22 -1 -22 -9 2 -4 14
-8 310 -9 658 l-1 632 -327 0 c-181 0 -521 3 -758 6 -236 3 -438 6 -447 6 -10
-1 -18 3 -18 7 0 18 132 21 826 21 l722 0 3 528 c3 452 6 530 19 544 14 14 16
12 22 -21 4 -20 7 -264 7 -543z m-3083 497 c25 -44 52 -73 112 -117 28 -21 52
-45 52 -53 0 -39 -181 68 -211 125 -11 19 -19 52 -19 73 l0 38 24 -18 c13 -10
32 -31 42 -48z m6178 -41 c-22 -45 -93 -99 -158 -119 -27 -8 -51 -13 -53 -12
-2 2 13 19 34 38 36 34 94 92 156 159 l32 35 3 -32 c2 -18 -5 -49 -14 -69z
m-5741 -10 c50 -17 62 -34 25 -34 -22 0 -88 34 -88 45 0 8 14 6 63 -11z m5297
-3 c-27 -21 -73 -31 -91 -20 -12 7 62 37 96 38 18 1 18 -1 -5 -18z m-1491 -93
c20 -15 20 -15 -7 -39 -55 -51 -105 -82 -137 -86 -31 -4 -34 -2 -40 28 -7 30
-4 36 31 63 68 55 110 64 153 34z m-596 -40 c31 -30 33 -35 19 -47 -14 -13
-13 -15 4 -21 16 -6 11 -14 -35 -63 -30 -32 -52 -59 -50 -61 2 -2 41 -8 86
-12 l82 -9 -77 -65 c-124 -106 -180 -158 -314 -289 -71 -69 -128 -122 -128
-117 0 4 33 49 73 99 155 195 236 306 228 312 -15 8 -52 9 -108 1 -29 -4 -53
-4 -53 1 1 4 37 53 82 108 44 55 96 121 115 148 19 26 36 47 38 47 1 0 18 -15
38 -32z m-3223 -148 c57 -57 87 -140 51 -140 -5 0 -30 30 -54 68 -25 37 -66
89 -91 116 -25 26 -46 50 -46 52 0 9 109 -65 140 -96z m3480 21 c-12 -31 -47
-51 -86 -51 -56 0 -32 54 46 105 l35 23 9 -25 c5 -15 4 -35 -4 -52z m1930 63
c0 -3 -25 -33 -55 -67 -30 -34 -69 -84 -87 -111 -43 -64 -63 -72 -55 -22 9 57
43 103 116 156 63 47 81 57 81 44z m282 -21 c24 -9 51 -25 61 -35 17 -17 16
-18 -24 -18 -81 0 -135 -42 -166 -132 -12 -33 -23 -48 -35 -48 -10 0 -18 -6
-18 -12 0 -7 -6 -4 -12 7 -7 11 -18 26 -25 33 -19 20 -17 112 4 142 25 36 42
48 93 64 59 19 72 19 122 -1z m-5952 -13 c39 -20 72 -58 84 -97 9 -27 -13 -93
-30 -93 -7 0 -15 -8 -19 -19 -9 -31 -48 -21 -55 14 -10 46 -37 91 -67 113 -31
22 -98 43 -107 34 -3 -3 -6 0 -6 7 0 6 11 23 25 36 32 32 117 35 175 5z m3767
-12 c-3 -7 -5 -2 -5 12 0 14 2 19 5 13 2 -7 2 -19 0 -25z m-2412 -8 c16 -18
14 -25 -8 -21 -4 1 -21 -6 -37 -14 -33 -17 -63 -9 -74 21 -10 26 2 34 53 34
35 0 53 -5 66 -20z m2425 -40 c0 -5 -5 -10 -11 -10 -5 0 -7 5 -4 10 3 6 8 10
11 10 2 0 4 -4 4 -10z m1374 -15 c-9 -14 -18 -25 -21 -25 -5 0 5 18 20 38 17
22 18 13 1 -13z m911 15 c3 -6 -1 -7 -9 -4 -18 7 -21 14 -7 14 6 0 13 -4 16
-10z m-6160 -55 c23 -24 35 -45 35 -63 l-1 -27 -14 32 c-17 40 -55 65 -100 65
-33 0 -43 7 -28 21 3 4 21 7 39 7 25 0 42 -9 69 -35z m6119 20 c8 -8 19 -15
25 -15 6 0 11 -3 12 -7 0 -5 2 -16 4 -25 4 -23 -23 -12 -30 13 -6 17 -14 20
-68 17 -60 -3 -62 -4 -84 -43 -23 -40 -32 -26 -12 18 23 50 118 76 153 42z
m-5577 -111 c6 -22 10 -40 9 -41 -4 -5 -75 109 -81 130 -11 40 59 -47 72 -89z
m4938 36 c-36 -52 -44 -44 -10 10 15 23 29 39 32 36 3 -3 -7 -24 -22 -46z
m-5521 19 c38 -30 37 -90 -3 -130 -16 -16 -39 -29 -50 -29 -30 0 -25 13 11 30
43 20 45 35 6 35 -27 0 -34 4 -36 23 -2 12 1 22 7 22 6 0 11 4 11 10 0 14 -40
6 -51 -11 -14 -22 -11 -56 7 -74 9 -9 14 -18 11 -21 -13 -13 -37 31 -37 68 0
32 6 47 30 69 35 34 58 36 94 8z m1531 7 c37 -16 47 -35 18 -35 -10 1 -35 -2
-55 -6 -30 -6 -39 -4 -44 9 -7 19 12 46 33 46 7 0 29 -7 48 -14z m3070 -2 c31
-31 -7 -67 -48 -45 -14 7 -34 10 -46 6 -11 -3 -21 -3 -21 2 0 14 58 47 92 52
4 1 14 -6 23 -15z m1553 4 c16 -16 15 -39 -4 -77 -14 -29 -20 -32 -45 -27 -50
10 -32 -27 21 -42 l35 -10 -31 -1 c-18 -1 -43 8 -58 20 -35 27 -37 98 -4 129
24 22 68 26 86 8z m-4948 -5 c-1 -9 -83 -73 -93 -73 -18 0 3 43 29 60 30 19
64 26 64 13z m2795 -3 c-29 -13 -104 -13 -85 0 8 5 35 9 60 9 34 0 40 -2 25
-9z m895 -10 c0 -5 -7 -7 -15 -4 -8 4 -12 10 -9 15 6 11 24 2 24 -11z m-3480
-4 c9 -12 4 -20 -30 -41 -50 -31 -93 -31 -98 2 -4 28 32 53 79 53 20 0 42 -6
49 -14z m3326 6 c17 -11 36 -51 29 -62 -13 -21 -78 -8 -119 24 -16 13 -17 18
-6 31 13 15 76 21 96 7z m226 -35 c5 -10 7 -21 5 -24 -7 -7 -67 26 -67 37 0
17 51 6 62 -13z m886 -32 c37 -76 36 -80 -57 -153 -57 -44 -101 -97 -101 -119
0 -22 -15 -15 -33 16 -9 16 -31 41 -48 55 -34 29 -33 37 4 95 18 28 187 151
207 151 3 0 16 -20 28 -45z m356 29 c3 -8 2 -12 -4 -9 -6 3 -10 1 -10 -4 0 -6
5 -11 10 -11 6 0 10 -4 10 -9 0 -14 -42 -63 -48 -56 -4 3 0 10 7 15 8 4 15 25
16 46 1 22 3 40 4 42 3 6 9 1 15 -14z m-5898 -30 c91 -55 121 -81 150 -130 28
-47 24 -66 -15 -79 -10 -3 -27 -21 -37 -40 -10 -19 -22 -35 -26 -35 -4 0 -19
17 -32 38 -13 20 -54 64 -91 97 -58 52 -66 63 -61 87 8 40 34 98 44 98 4 0 35
-16 68 -36z m3733 -18 c-2 -2 -48 -7 -101 -11 -69 -5 -98 -4 -98 4 0 7 35 11
102 11 56 0 99 -2 97 -4z m-2859 -25 c0 -5 -7 -12 -16 -15 -24 -9 -28 -7 -14
9 14 17 30 20 30 6z m-60 -21 c-6 -11 -18 -20 -26 -20 -12 0 -10 5 7 20 30 25
32 25 19 0z m3830 -7 c13 -13 11 -13 -15 -7 -16 4 -39 13 -50 21 -18 14 -17
14 15 8 19 -4 42 -14 50 -22z m-3979 -30 c1 -27 1 -51 0 -55 0 -5 4 -8 9 -8 6
0 10 -4 10 -10 0 -15 -30 -12 -30 3 0 6 -5 4 -11 -5 -5 -10 -20 -18 -32 -18
-12 0 -29 -5 -37 -11 -11 -8 -6 -9 20 -5 l35 5 -27 -14 c-15 -9 -64 -29 -110
-46 -45 -16 -96 -36 -113 -44 -57 -25 -99 -35 -107 -27 -5 5 14 18 44 30 29
11 71 27 93 36 l40 15 -50 0 c-82 1 -229 -19 -237 -32 -4 -6 -9 -9 -12 -6 -3
3 4 24 16 48 33 66 70 85 236 116 45 8 115 28 155 44 103 41 107 41 108 -16z
m4209 18 c38 -17 111 -37 162 -46 128 -23 180 -41 212 -74 27 -28 57 -102 33
-83 -19 15 -136 32 -218 32 l-74 0 59 -25 c60 -24 114 -64 71 -52 -75 22 -284
114 -280 124 2 6 -3 17 -11 24 -11 9 -12 15 -3 25 8 10 8 14 0 14 -6 0 -11 -3
-11 -7 0 -5 -12 -13 -26 -20 -26 -12 -26 -12 -20 25 3 20 6 49 6 65 0 35 13
35 100 -2z m-3746 -8 c13 -9 -35 -32 -66 -33 -57 0 -81 32 -36 49 20 7 78 -2
102 -16z m2676 23 c0 -3 -4 -8 -10 -11 -5 -3 -10 -1 -10 4 0 6 5 11 10 11 6 0
10 -2 10 -4z m627 -22 c14 -38 -60 -52 -96 -19 -22 21 -3 35 45 35 32 0 46 -5
51 -16z m-3190 -18 c15 -13 24 -28 20 -32 -4 -5 -12 -2 -17 6 -7 11 -14 11
-32 3 -27 -12 -58 -1 -58 22 0 31 51 32 87 1z m2226 -8 c-9 -49 -18 -52 -18
-7 -1 25 4 39 12 39 9 0 11 -10 6 -32z m806 19 c8 -10 7 -19 -3 -32 -12 -16
-16 -17 -29 -6 -9 7 -25 10 -37 6 -27 -9 -26 10 2 29 27 20 52 20 67 3z
m-2089 -84 l1 -58 54 58 c32 33 63 57 75 57 28 0 26 -5 -20 -60 l-40 -48 45
-65 c25 -36 45 -70 45 -76 0 -27 -39 -7 -74 39 -21 28 -43 53 -48 56 -18 11
-38 -19 -38 -57 0 -35 -3 -39 -25 -39 l-25 0 0 125 0 125 25 0 c24 0 25 -3 25
-57z m260 -72 c5 -127 1 -141 -35 -127 -12 4 -15 28 -15 124 0 65 3 122 7 126
4 4 14 5 23 4 12 -3 16 -26 20 -127z m1007 47 c-3 -7 -5 -2 -5 12 0 14 2 19 5
13 2 -7 2 -19 0 -25z m-10 -65 c-3 -10 -5 -4 -5 12 0 17 2 24 5 18 2 -7 2 -21
0 -30z m-2593 -1033 c6 -31 4 -29 -23 20 -37 70 -66 97 -169 159 -82 49 -253
122 -320 136 -41 8 -41 9 42 170 78 154 86 173 86 209 0 57 15 63 41 17 13
-22 27 -41 32 -41 4 0 7 24 7 53 l1 52 28 -35 c16 -19 32 -32 36 -28 4 3 10
40 14 82 4 41 10 79 15 83 4 4 18 -4 31 -19 13 -16 27 -28 30 -28 3 0 5 23 5
50 0 49 1 51 38 66 22 8 50 29 63 47 l24 32 6 -495 c3 -272 9 -511 13 -530z
m3794 990 c12 -16 37 -33 55 -38 31 -8 32 -10 29 -59 -4 -57 12 -77 29 -39 13
28 38 42 44 23 2 -6 5 -42 7 -79 2 -37 7 -71 12 -75 4 -4 21 8 37 27 30 37 32
36 29 -21 -2 -53 15 -56 47 -7 l27 43 11 -45 c6 -25 16 -56 22 -70 6 -14 20
-49 32 -78 12 -29 42 -93 67 -141 26 -49 44 -93 40 -99 -3 -5 -21 -13 -40 -16
-54 -10 -218 -79 -302 -127 -96 -55 -142 -99 -176 -169 l-27 -55 4 80 c9 154
14 393 15 683 0 160 4 292 8 292 5 0 18 -13 30 -30z m-4723 -30 c3 -5 2 -10
-4 -10 -5 0 -13 5 -16 10 -3 6 -2 10 4 10 5 0 13 -4 16 -10z m6375 -73 c0 -2
-10 -12 -22 -23 l-23 -19 19 23 c18 21 26 27 26 19z m-946 -73 c9 -8 16 -19
16 -23 0 -13 -34 -37 -50 -37 -19 1 -25 42 -10 62 16 18 25 18 44 -2z m-5201
-16 c13 -20 -6 -48 -34 -48 -22 0 -35 36 -18 56 15 18 38 15 52 -8z m2913
-411 c45 -137 105 -229 240 -365 88 -88 107 -103 131 -100 21 2 33 13 49 43
18 36 24 40 63 43 48 4 91 -18 91 -46 0 -26 20 -42 52 -42 27 0 72 37 125 103
24 29 42 35 44 15 8 -71 -18 -189 -50 -230 -11 -14 -42 -33 -68 -43 -26 -10
-54 -23 -61 -28 -10 -8 -16 -7 -22 3 -4 7 -15 10 -23 7 -8 -3 -21 0 -28 6 -11
10 -11 9 -1 -4 9 -12 6 -18 -18 -33 -17 -10 -35 -14 -43 -9 -6 4 -17 8 -24 9
-7 1 -26 9 -42 17 -18 9 -31 11 -33 5 -2 -6 -33 5 -68 24 -85 46 -114 96 -114
205 -1 49 -5 73 -13 73 -6 0 -13 -5 -15 -12 -6 -17 -102 75 -154 148 -24 34
-58 92 -76 130 -41 87 -44 165 -8 234 l24 45 12 -73 c7 -41 21 -97 30 -125z
m668 -121 c26 -43 45 -82 44 -87 -2 -4 -28 8 -58 27 -30 18 -60 34 -67 34 -10
0 -13 -26 -13 -104 l0 -105 -35 15 c-27 11 -45 12 -72 5 -20 -6 -39 -8 -43 -6
-4 3 -5 47 -2 100 6 111 4 112 -78 60 -30 -20 -56 -31 -58 -25 -2 6 39 86 91
178 53 92 101 179 108 195 12 27 13 26 74 -90 34 -65 83 -154 109 -197z m394
277 c28 -55 33 -97 21 -156 -22 -101 -114 -247 -207 -327 -54 -46 -58 -47 -67
-20 -5 15 4 34 32 68 57 69 78 100 117 179 35 70 76 212 76 266 0 36 6 34 28
-10z m-2163 -7 c12 -15 40 -29 70 -37 28 -7 86 -30 130 -53 61 -31 89 -40 118
-37 56 4 88 -28 86 -84 -2 -31 4 -50 23 -76 53 -71 98 -194 98 -269 0 -22 10
-44 30 -67 38 -43 38 -76 1 -114 -33 -33 -49 -36 -77 -14 -18 14 -17 14 12 9
35 -7 74 21 74 53 0 24 -30 53 -55 53 -36 0 -74 -57 -52 -79 8 -8 8 -11 -2
-11 -7 0 -15 9 -18 21 -5 20 -12 20 -132 18 -102 -2 -133 0 -161 14 l-35 17
50 -6 c28 -3 97 -5 155 -5 104 2 105 2 128 31 15 19 33 30 48 30 18 0 24 5 24
23 0 44 -36 162 -67 217 -55 102 -54 100 -93 94 -29 -5 -42 -1 -67 20 -34 29
-54 32 -102 15 -31 -11 -41 -32 -21 -44 6 -4 7 -11 4 -17 -10 -16 -6 -96 6
-119 9 -16 -1 -29 -63 -88 -51 -49 -73 -77 -73 -93 1 -19 -3 -22 -24 -20 -14
2 -31 9 -38 14 -9 8 -18 6 -30 -6 -10 -9 -22 -13 -25 -9 -4 3 -7 1 -7 -6 0 -7
-7 -20 -16 -28 -14 -15 -15 -14 -12 3 2 10 10 25 18 31 13 11 13 14 0 23 -22
14 -33 12 -26 -5 3 -8 1 -15 -4 -15 -6 0 -10 5 -10 11 0 8 -5 7 -15 -1 -21
-17 -29 -6 -15 20 16 30 5 53 -48 100 -26 23 -57 51 -68 61 -12 10 -29 19 -38
19 -18 0 -35 -35 -33 -66 2 -15 -4 -18 -26 -16 -17 2 -46 -7 -74 -23 -35 -21
-47 -24 -53 -14 -6 9 5 18 40 30 75 26 84 34 86 70 2 36 25 59 60 59 25 0 54
-24 54 -45 0 -7 14 -18 30 -25 17 -7 48 -33 70 -57 23 -26 44 -42 50 -38 22
14 91 6 116 -13 l26 -18 54 57 c60 62 73 94 66 153 -3 27 -10 40 -23 43 -18 5
-18 7 -2 34 19 32 23 23 -67 123 l-35 39 30 -7 c17 -4 46 -24 66 -46 34 -37
39 -39 84 -36 42 3 64 16 65 38 0 14 -156 86 -222 102 -23 5 -27 3 -33 -24 -4
-20 -17 -36 -36 -45 l-29 -16 0 -119 c0 -66 4 -120 9 -120 4 0 29 16 55 36 26
20 54 33 62 30 23 -9 16 -23 -23 -44 -21 -11 -53 -28 -70 -38 -18 -10 -37 -29
-41 -43 -9 -24 -10 -22 -17 23 -4 27 -5 99 -3 161 l5 112 -29 17 c-17 11 -31
29 -34 46 l-6 27 -66 -19 c-72 -22 -162 -64 -162 -76 1 -19 19 -30 60 -34 37
-3 49 0 70 20 28 26 100 66 100 55 0 -3 -14 -18 -32 -33 l-31 -27 21 -21 c12
-12 22 -31 22 -42 0 -10 9 -24 20 -30 30 -16 24 -30 -9 -24 -19 4 -40 0 -60
-12 -29 -17 -31 -17 -51 1 -13 12 -20 31 -20 57 0 38 0 39 -36 36 -25 -1 -46
-12 -66 -31 -25 -26 -34 -29 -72 -25 l-43 5 -41 -61 c-39 -57 -71 -131 -88
-201 -5 -21 -8 -25 -11 -13 -10 43 47 182 106 258 22 28 27 43 23 72 -3 30 1
42 23 64 21 21 33 25 60 21 26 -4 51 3 109 32 41 21 94 41 116 45 24 4 52 17
66 31 13 13 32 29 41 35 26 15 75 3 98 -24z m2254 -167 c27 -84 2 -168 -73
-241 -70 -69 -153 -131 -166 -123 -5 3 -10 2 -10 -4 0 -11 -61 -43 -69 -36 -3
3 29 40 70 83 42 42 89 95 106 117 46 60 93 159 105 223 12 58 12 58 37 -19z
m-1222 -115 c38 -74 91 -142 172 -219 91 -89 80 -100 -32 -34 -84 50 -186 148
-217 208 -18 37 -22 56 -17 105 3 34 10 75 17 91 l12 30 17 -60 c10 -33 31
-87 48 -121z m-1980 -51 c-2 -16 -4 -5 -4 22 0 28 2 40 4 28 2 -13 2 -35 0
-50z m-1178 -17 c49 -26 114 -127 90 -142 -7 -4 -9 -26 -4 -61 8 -66 -4 -99
-49 -133 -36 -26 -66 -71 -66 -98 0 -19 -36 -69 -44 -62 -11 12 -26 146 -27
242 0 67 -6 114 -15 138 -15 34 -15 36 14 60 16 14 34 35 41 48 14 26 22 27
60 8z m1651 -10 c0 -7 -9 -25 -20 -39 -12 -14 -27 -43 -34 -64 -11 -31 -15
-35 -21 -20 -9 22 51 151 65 142 6 -3 10 -12 10 -19z m870 -1 c7 -17 14 -23
26 -18 14 5 15 3 5 -15 -6 -11 -11 -32 -11 -45 0 -23 -3 -25 -39 -20 -36 5
-41 3 -46 -19 -12 -45 -75 -63 -98 -27 -29 46 28 96 77 69 19 -10 29 -9 55 4
26 14 30 20 21 36 -6 11 -16 17 -25 14 -10 -4 -15 0 -15 13 0 40 36 46 50 8z
m3320 17 c0 -15 56 -72 71 -72 9 0 10 -3 3 -8 -29 -19 -38 -63 -45 -222 -4
-91 -11 -176 -17 -190 -9 -23 -12 -20 -47 55 -21 44 -42 82 -47 83 -5 2 -22
15 -38 29 -29 24 -30 27 -30 119 0 107 10 134 65 183 33 28 85 43 85 23z
m-2750 -57 c47 -61 126 -124 232 -186 74 -43 88 -65 36 -54 -64 14 -136 43
-208 85 -55 32 -75 50 -87 78 -16 37 -30 132 -20 132 2 0 24 -25 47 -55z
m1310 8 c-12 -79 -34 -117 -90 -153 -56 -36 -147 -74 -198 -84 l-32 -6 22 24
c13 13 58 47 101 76 73 50 187 160 187 181 0 5 4 9 8 9 5 0 5 -21 2 -47z
m-3595 -63 c3 -5 0 -18 -6 -29 -10 -15 -9 -24 5 -46 10 -15 16 -29 13 -31 -4
-5 -125 61 -141 77 -5 5 -6 12 -2 16 4 4 11 1 16 -7 14 -22 44 0 48 33 3 26 4
26 32 12 16 -8 31 -19 35 -25z m4248 9 c4 -13 14 -19 34 -19 l28 0 -24 -19
c-14 -11 -48 -33 -77 -49 l-53 -30 1 29 c1 16 5 29 10 29 5 0 4 9 -2 21 -13
23 0 46 35 59 26 10 42 3 48 -21z m998 -48 c31 -32 38 -75 17 -104 -16 -20
-68 -34 -68 -17 0 6 -6 10 -12 7 -15 -4 -38 44 -38 81 0 31 26 62 52 62 11 0
33 -13 49 -29z m-6246 5 c22 -16 23 -68 1 -101 -18 -28 -70 -42 -91 -25 -24
20 -19 83 8 107 19 18 40 30 58 32 3 1 13 -5 24 -13z m3488 -167 c59 -20 108
-40 107 -45 0 -5 -33 -8 -73 -8 -84 2 -194 38 -211 69 -6 11 -13 22 -16 25
-10 10 -30 50 -30 60 0 5 26 -7 58 -27 31 -21 106 -54 165 -74z m1054 60 c-8
-19 -24 -43 -35 -53 -23 -20 -97 -44 -177 -56 -59 -9 -77 -7 -73 6 2 5 6 8 11
7 4 -2 7 2 7 7 0 6 7 10 15 10 24 0 189 69 226 94 19 13 35 23 37 21 2 -2 -3
-18 -11 -36z m-4471 -31 c-9 -12 -16 -19 -16 -15 0 11 24 47 28 42 2 -2 -3
-14 -12 -27z m1686 -8 c22 -27 23 -56 3 -64 -11 -4 -15 1 -15 18 0 13 -6 29
-14 35 -23 19 -69 9 -82 -17 -18 -36 -27 -40 -20 -7 12 48 35 67 75 61 20 -2
43 -14 53 -26z m4342 14 c3 -8 2 -12 -4 -9 -6 3 -10 10 -10 16 0 14 7 11 14
-7z m-3524 -9 c7 -9 10 -18 7 -22 -8 -7 -37 15 -37 28 0 14 16 11 30 -6z
m-475 -33 c-8 -9 -29 -11 -165 -18 -85 -4 -120 -2 -111 4 8 6 40 11 70 11 31
1 83 5 116 9 59 8 101 5 90 -6z m160 -12 c3 -5 -1 -10 -9 -10 -8 0 -18 5 -21
10 -3 6 1 10 9 10 8 0 18 -4 21 -10z m-1955 -27 c0 -14 -3 -23 -7 -19 -10 10
-11 46 -1 46 4 0 8 -12 8 -27z m1687 -39 c18 -14 31 -30 27 -35 -4 -6 -12 -4
-23 5 -9 9 -27 25 -41 36 -15 12 -19 19 -11 20 8 0 29 -12 48 -26z m1467 1
c43 -8 95 -15 116 -15 36 0 68 -18 38 -21 -7 -1 -24 -3 -38 -5 -94 -15 -138
-11 -179 15 -44 28 -64 56 -32 46 10 -3 53 -12 95 -20z m996 5 c-14 -11 -32
-20 -41 -20 -9 0 -20 -8 -23 -17 -6 -15 -8 -15 -16 -3 -8 12 -10 12 -10 1 0
-10 -7 -11 -27 -6 -16 4 -41 7 -58 6 -16 0 -36 3 -43 8 -8 5 12 10 55 15 37 3
91 13 118 20 68 19 74 19 45 -4z m-2015 -54 c22 -16 42 -31 45 -33 2 -2 -2 -8
-9 -13 -10 -6 -27 5 -58 36 -65 66 -57 70 22 10z m142 9 c12 -8 27 -31 33 -51
12 -36 17 -38 62 -19 11 4 20 0 26 -12 9 -16 6 -18 -30 -19 -22 -1 -45 -7 -51
-13 -19 -19 -31 -12 -13 8 16 18 15 20 -18 56 -29 31 -40 36 -66 31 -31 -4
-31 -4 -14 15 21 23 42 24 71 4z m-477 -45 c-11 -9 -20 -25 -20 -34 0 -9 -4
-16 -10 -16 -13 0 -13 6 1 33 17 30 33 46 42 40 4 -3 -1 -13 -13 -23z m1553
-2 c-18 -6 -33 -16 -33 -23 0 -7 -14 -15 -31 -19 -47 -9 -81 -7 -74 4 3 6 -5
10 -19 10 -14 0 -28 5 -31 10 -4 6 9 10 32 11 21 0 56 4 78 8 22 5 56 9 75 9
l35 0 -32 -10z m642 -1 l80 -12 -38 -23 c-21 -12 -41 -22 -45 -22 -23 0 -82
23 -101 39 -40 35 -28 37 104 18z m-435 -45 c-11 -2 -20 -10 -20 -18 0 -21
-20 -39 -69 -64 -66 -35 -69 -17 -5 25 32 21 60 39 62 40 2 2 4 11 5 22 1 16
4 18 24 9 21 -10 22 -11 3 -14z m-1063 -4 c-3 -8 -6 -5 -6 6 -1 11 2 17 5 13
3 -3 4 -12 1 -19z m-887 -8 c13 -8 13 -9 0 -14 -48 -15 -60 -14 -60 5 0 21 33
26 60 9z m1747 -15 c-17 -15 -34 -22 -44 -18 -13 5 -8 11 23 24 52 23 54 23
21 -6z m543 1 c20 -8 27 -15 19 -18 -8 -3 -27 3 -44 13 -35 22 -21 25 25 5z
m-1885 -17 c13 -6 5 -6 -20 -3 -22 4 -47 10 -55 15 -18 10 46 0 75 -12z m467
-1 c-7 -7 -12 -8 -12 -2 0 6 3 14 7 17 3 4 9 5 12 2 2 -3 -1 -11 -7 -17z
m-1012 -19 c0 -6 -4 -7 -10 -4 -5 3 -10 11 -10 16 0 6 5 7 10 4 6 -3 10 -11
10 -16z m998 -11 c-2 -6 -10 -14 -16 -16 -7 -2 -10 2 -6 12 7 18 28 22 22 4z
m-348 -31 c0 -8 -7 -14 -15 -14 -25 0 -17 17 13 26 1 1 2 -5 2 -12z m-290 -7
c0 -5 -5 -10 -11 -10 -5 0 -7 5 -4 10 3 6 8 10 11 10 2 0 4 -4 4 -10z m596
-18 c-18 -16 -18 -16 -6 6 6 13 14 21 18 18 3 -4 -2 -14 -12 -24z m-816 -2 c0
-13 -11 -13 -30 0 -12 8 -11 10 8 10 12 0 22 -4 22 -10z m788 -12 c15 -15 16
-31 1 -22 -30 18 -67 13 -93 -13 -29 -29 -36 -12 -10 25 17 25 81 31 102 10z
m-109 -83 c8 -9 -154 -5 -167 4 -8 4 25 6 74 4 49 -2 90 -6 93 -8z m1205 -12
c-9 -36 -55 -123 -66 -123 -4 0 -8 -8 -8 -19 0 -11 -9 -21 -22 -24 -22 -6 -38
-1 -38 12 0 12 128 179 138 181 1 0 -1 -12 -4 -27z m2240 12 c3 -8 1 -15 -4
-15 -6 0 -10 7 -10 15 0 8 2 15 4 15 2 0 6 -7 10 -15z m-5896 -7 c-2 -6 -10
-14 -16 -16 -7 -2 -10 2 -6 12 7 18 28 22 22 4z m3928 -25 c7 -10 14 -29 14
-43 0 -17 3 -21 9 -12 6 10 15 4 35 -22 15 -20 22 -36 17 -36 -6 0 -11 5 -11
11 0 6 -6 9 -14 6 -20 -8 -51 32 -66 83 -10 34 -4 38 16 13z m-236 -43 c-7 -4
-9 -16 -5 -29 5 -16 3 -20 -9 -15 -19 7 -19 3 1 50 13 30 18 35 21 20 2 -10
-1 -22 -8 -26z m-1539 13 c12 -15 12 -16 -4 -10 -10 4 -27 7 -38 7 -10 0 -19
5 -19 10 0 16 47 11 61 -7z m-2069 -25 c29 -9 41 -9 50 0 17 17 28 15 28 -5 0
-12 -8 -19 -22 -19 -13 -1 -49 -5 -80 -9 -59 -8 -65 -5 -52 29 7 19 24 20 76
4z m2305 6 c-3 -3 -12 -4 -19 -1 -8 3 -5 6 6 6 11 1 17 -2 13 -5z m3483 -14
c14 -27 -5 -34 -60 -23 -45 9 -54 24 -18 35 43 12 67 8 78 -12z m-5100 -50 c0
-4 19 -20 42 -36 24 -16 56 -41 73 -56 82 -72 101 -88 108 -88 17 0 5 -29 -14
-35 -18 -6 -40 11 -126 96 -114 114 -135 140 -103 132 11 -3 20 -9 20 -13z
m2861 -33 c-10 -9 -11 -8 -5 6 3 10 9 15 12 12 3 -3 0 -11 -7 -18z m1440 -14
c-5 -10 -45 -53 -89 -97 -76 -75 -81 -78 -102 -63 l-21 15 30 22 c17 12 31 18
31 13 0 -4 5 0 11 10 5 9 15 17 21 17 6 0 18 7 27 15 26 24 96 85 99 85 1 0
-2 -8 -7 -17z m-5613 -168 c2 -14 0 -16 -6 -7 -12 18 -40 5 -45 -21 -3 -16 -5
-13 -6 9 0 17 2 34 6 38 14 13 48 1 51 -19z m7012 10 c17 -21 4 -52 -23 -51
-17 1 -23 8 -25 34 -3 26 0 32 16 32 11 0 25 -7 32 -15z m-5398 -65 c12 -11
19 -22 16 -26 -9 -8 -45 13 -52 31 -8 21 11 19 36 -5z m3746 -2 c-3 -7 -13
-15 -24 -17 -16 -3 -17 -1 -5 13 16 19 34 21 29 4z m-3573 -39 c11 -17 -1 -21
-15 -4 -8 9 -8 15 -2 15 6 0 14 -5 17 -11z m3412 -5 c-3 -3 -12 -4 -19 -1 -8
3 -5 6 6 6 11 1 17 -2 13 -5z m147 -40 c7 -19 -12 -47 -25 -38 -5 3 -9 16 -9
30 0 27 24 33 34 8z m-3700 -3 c3 -4 1 -13 -3 -19 -9 -15 -41 -5 -41 12 0 13
37 19 44 7z m-1610 -420 c3 -5 -1 -11 -9 -14 -9 -4 -12 -1 -8 9 6 16 10 17 17
5z m6911 -1 c3 -5 -1 -10 -9 -10 -9 0 -16 5 -16 10 0 6 4 10 9 10 6 0 13 -4
16 -10z m-6895 -91 c0 -5 -4 -8 -9 -5 -5 4 -11 0 -14 -6 -2 -7 -8 -10 -12 -6
-4 4 -4 11 0 17 8 14 35 14 35 0z m6888 -5 c-9 -9 -21 -13 -27 -9 -16 10 -3
25 22 25 20 0 20 -1 5 -16z m-6979 -53 c25 -34 27 -76 6 -85 -17 -6 -29 16
-38 77 -7 44 4 47 32 8z m7068 -32 c-10 -52 -32 -73 -48 -48 -13 19 -2 60 23
86 30 32 37 21 25 -38z m-6777 36 c0 -9 9 -25 20 -37 25 -28 25 -38 -1 -38
-16 0 -19 4 -14 20 3 11 2 20 -3 20 -5 0 -12 11 -14 25 -3 14 -1 25 3 25 5 0
9 -7 9 -15z m-122 -7 c16 -16 16 -71 0 -66 -19 7 -51 55 -44 67 9 14 29 14 44
-1z m6739 -5 c2 -6 -7 -24 -21 -39 -22 -26 -25 -27 -31 -11 -4 10 0 28 10 43
16 25 35 28 42 7z m-166 -47 c5 3 9 0 9 -5 0 -6 -9 -11 -20 -11 -20 0 -26 11
-13 24 4 4 9 2 11 -3 2 -6 8 -9 13 -5z m119 -92 c0 -8 -7 -14 -15 -14 -15 0
-21 21 -9 33 10 9 24 -2 24 -19z m-6652 -7 c3 -16 1 -17 -17 -7 -25 13 -28 33
-4 28 10 -2 19 -11 21 -21z m-208 -8 c0 -11 -4 -17 -10 -14 -5 3 -10 13 -10
21 0 8 5 14 10 14 6 0 10 -9 10 -21z m7060 6 c0 -8 -4 -15 -9 -15 -13 0 -22
16 -14 24 11 11 23 6 23 -9z"/>
<path d="M3290 7659 c0 -5 5 -7 10 -4 6 3 10 8 10 11 0 2 -4 4 -10 4 -5 0 -10
-5 -10 -11z"/>
<path d="M5126 7339 c-23 -27 -26 -40 -26 -104 0 -41 4 -85 9 -98 36 -93 154
-86 181 11 23 84 5 173 -41 206 -13 9 -40 16 -60 16 -29 0 -43 -7 -63 -31z"/>
<path d="M8230 6206 c0 -3 5 -16 11 -30 13 -27 42 -46 32 -20 -3 7 -9 14 -14
14 -5 0 -9 6 -9 14 0 8 -4 18 -10 21 -5 3 -10 4 -10 1z"/>
<path d="M4205 5951 c-74 -22 -147 -58 -234 -118 -67 -47 -84 -61 -185 -147
l-57 -49 48 -50 c63 -64 211 -175 293 -220 107 -58 176 -77 285 -77 144 0 261
44 420 156 67 48 219 172 223 183 1 3 -11 15 -28 24 -16 10 -78 58 -137 107
-119 99 -198 145 -315 184 -93 32 -219 34 -313 7z m109 -47 c23 -9 20 -59 -8
-127 -26 -64 -26 -114 -2 -182 47 -129 41 -172 -21 -162 -48 8 -94 42 -132 96
-35 53 -39 71 -13 72 12 0 10 3 -7 10 -23 9 -24 12 -18 80 12 141 112 247 201
213z m190 -18 c83 -63 119 -214 76 -314 -36 -83 -121 -151 -177 -140 -29 5
-27 63 6 158 16 47 26 89 23 95 -3 5 -12 -10 -19 -35 -16 -58 -44 -120 -53
-120 -9 0 -47 98 -55 144 -5 26 0 49 20 95 15 34 31 61 35 61 5 0 16 -20 27
-45 10 -25 23 -47 30 -49 6 -3 0 20 -13 50 -23 53 -31 104 -17 117 16 17 87 6
117 -17z m133 -28 c47 -52 58 -88 58 -193 0 -117 -10 -143 -85 -227 -40 -46
-62 -60 -120 -82 -84 -31 -165 -34 -253 -9 -142 40 -248 231 -216 390 11 53
41 108 71 127 29 18 29 2 2 -70 -61 -160 -8 -320 128 -388 72 -36 189 -37 263
-2 146 67 203 242 131 396 -14 30 -26 61 -26 68 0 19 25 14 47 -10z"/>
<path d="M4253 5883 c-19 -7 -15 -31 6 -43 27 -14 31 -13 31 9 0 22 -20 40
-37 34z"/>
<path d="M4207 5826 c-7 -17 22 -31 36 -17 5 5 6 14 3 20 -10 16 -33 14 -39
-3z"/>
<path d="M4167 5766 c-8 -19 18 -40 39 -32 15 6 15 8 -1 26 -21 24 -31 25 -38
6z"/>
<path d="M4235 5750 c-3 -5 -4 -10 -1 -10 2 0 12 -3 20 -6 12 -5 15 -2 10 10
-7 18 -20 21 -29 6z"/>
<path d="M4188 5683 c-25 -3 -38 -9 -38 -19 0 -24 27 -27 59 -8 28 17 42 37
24 32 -5 -1 -25 -3 -45 -5z"/>
<path d="M4233 5607 c-4 -8 -17 -16 -27 -18 -28 -6 -44 -35 -28 -51 11 -11 18
-8 36 14 13 14 32 28 42 30 11 2 19 10 19 18 0 20 -31 25 -42 7z"/>
<path d="M4251 5516 c-16 -19 -8 -46 14 -46 16 0 18 14 6 43 -6 17 -8 17 -20
3z"/>
<path d="M4431 5876 c-8 -9 -7 -18 3 -31 12 -16 16 -17 29 -6 17 14 13 37 -8
45 -7 2 -18 -1 -24 -8z"/>
<path d="M4480 5831 c0 -5 -7 -17 -16 -26 -15 -15 -14 -15 12 -9 36 9 38 10
31 29 -7 16 -27 21 -27 6z"/>
<path d="M4501 5756 c-13 -14 -29 -22 -37 -19 -8 3 -14 0 -14 -5 0 -18 17 -23
29 -8 7 8 21 12 31 9 22 -6 39 22 23 38 -6 6 -18 0 -32 -15z"/>
<path d="M4483 5666 c2 -5 20 -15 40 -22 35 -12 37 -12 37 9 0 19 -5 22 -40
22 -22 0 -39 -4 -37 -9z"/>
<path d="M4455 5610 c-8 -12 35 -69 53 -69 6 -1 12 4 12 9 0 6 7 10 15 10 8 0
15 7 15 15 0 9 -6 12 -15 8 -9 -3 -23 1 -33 9 -28 24 -40 29 -47 18z"/>
<path d="M4430 5550 c0 -5 5 -10 11 -10 5 0 7 5 4 10 -3 6 -8 10 -11 10 -2 0
-4 -4 -4 -10z"/>
<path d="M4426 5504 c-7 -19 1 -34 19 -34 18 0 26 25 12 39 -15 15 -24 14 -31
-5z"/>
<path d="M5685 5341 c-3 -5 0 -13 6 -17 7 -4 9 -3 5 4 -3 5 0 13 6 15 9 4 10
6 1 6 -6 1 -14 -3 -18 -8z"/>
<path d="M5685 5274 c-43 -47 -62 -82 -26 -49 56 53 71 71 71 82 0 17 1 18
-45 -33z"/>
<path d="M8286 5332 c-3 -5 4 -13 15 -20 15 -10 19 -10 19 2 0 15 -27 29 -34
18z"/>
<path d="M5911 3753 c-1 -7 8 -17 19 -23 14 -7 20 -7 20 0 0 5 -6 10 -14 10
-8 0 -17 6 -19 13 -4 9 -6 9 -6 0z"/>
<path d="M6005 3740 c-3 -5 1 -10 9 -10 9 0 16 5 16 10 0 6 -4 10 -9 10 -6 0
-13 -4 -16 -10z"/>
<path d="M5976 3721 c-3 -5 1 -11 9 -14 9 -4 12 -1 8 9 -6 16 -10 17 -17 5z"/>
<path d="M4348 4489 c-45 -26 -4 -104 41 -79 25 13 31 30 18 55 -17 34 -32 40
-59 24z"/>
<path d="M3960 4340 c-25 -25 -25 -35 0 -60 21 -21 46 -18 68 8 16 21 15 37
-4 56 -21 21 -40 20 -64 -4z"/>
<path d="M4743 4343 c-21 -8 -16 -61 7 -73 27 -15 60 4 60 33 0 38 -29 56 -67
40z"/>
<path d="M4184 4276 c-10 -40 12 -58 45 -37 9 6 11 18 7 35 -8 34 -43 35 -52
2z"/>
<path d="M4690 4035 c-22 -26 12 -49 37 -24 14 14 6 39 -12 39 -7 0 -18 -7
-25 -15z"/>
<path d="M5941 8404 c0 -11 3 -14 6 -6 3 7 2 16 -1 19 -3 4 -6 -2 -5 -13z"/>
<path d="M5341 8204 c0 -11 3 -14 6 -6 3 7 2 16 -1 19 -3 4 -6 -2 -5 -13z"/>
<path d="M5084 7765 c-7 -75 -7 -95 3 -95 10 0 13 25 13 95 0 52 -2 95 -3 95
-2 0 -8 -43 -13 -95z"/>
<path d="M5303 7767 c1 -57 6 -97 12 -97 12 1 9 122 -4 165 -7 22 -9 5 -8 -68z"/>
<path d="M5815 7804 c-48 -24 -78 -50 -71 -62 4 -7 19 -3 43 13 41 28 55 30
84 13 18 -11 23 -10 40 11 10 13 19 28 19 35 0 6 -6 4 -13 -5 -11 -15 -15 -15
-32 -3 -24 17 -33 17 -70 -2z"/>
<path d="M4185 7663 c-26 -38 -51 -111 -41 -120 3 -3 8 8 12 23 11 47 34 87
62 111 21 18 23 23 10 23 -10 0 -29 -17 -43 -37z"/>
<path d="M6167 7672 c41 -34 63 -87 64 -154 l1 -53 10 40 c7 28 6 54 -1 83
-13 48 -65 112 -90 112 -11 0 -6 -9 16 -28z"/>
<path d="M6301 7471 c-7 -5 -11 -13 -7 -19 3 -6 2 -12 -4 -14 -5 -1 -7 -13 -4
-25 8 -31 35 -18 32 16 -1 15 1 32 6 39 8 14 -3 16 -23 3z"/>
<path d="M4090 7460 c0 -5 5 -10 11 -10 5 0 7 5 4 10 -3 6 -8 10 -11 10 -2 0
-4 -4 -4 -10z"/>
<path d="M6321 7376 c-10 -18 -11 -28 -2 -42 11 -17 11 -17 6 3 -4 14 0 25 9
30 9 5 12 13 7 21 -5 9 -11 6 -20 -12z"/>
<path d="M6287 7343 c5 -13 2 -15 -13 -10 -19 7 -19 7 0 -8 28 -21 34 -19 28
10 -2 14 -8 25 -13 25 -5 0 -5 -8 -2 -17z"/>
<path d="M6257 7290 c-7 -35 -4 -70 6 -70 5 0 7 9 4 20 -3 10 0 21 6 23 9 3 9
10 0 28 l-11 24 -5 -25z"/>
<path d="M3606 6685 c-3 -9 0 -15 9 -15 9 0 12 6 9 15 -4 8 -7 15 -9 15 -2 0
-5 -7 -9 -15z"/>
<path d="M8206 6643 c-6 -14 -5 -15 5 -6 7 7 10 15 7 18 -3 3 -9 -2 -12 -12z"/>
<path d="M7072 6605 c0 -16 2 -22 5 -12 2 9 2 23 0 30 -3 6 -5 -1 -5 -18z"/>
<path d="M1868 6533 c7 -3 16 -2 19 1 4 3 -2 6 -13 5 -11 0 -14 -3 -6 -6z"/>
<path d="M8036 6531 c-4 -5 3 -7 14 -4 23 6 26 13 6 13 -8 0 -17 -4 -20 -9z"/>
<path d="M1824 6515 c-18 -14 -18 -14 4 -8 12 3 22 9 22 14 0 12 -3 11 -26 -6z"/>
<path d="M7025 6339 c-4 -6 -3 -15 3 -21 6 -6 11 -4 15 6 7 18 -9 31 -18 15z"/>
<path d="M6994 6282 c-7 -4 -8 -15 -4 -27 7 -18 9 -18 15 -3 9 23 3 39 -11 30z"/>
<path d="M3343 6176 c9 -7 17 -19 17 -26 0 -10 4 -9 17 1 15 12 16 12 11 -2
-5 -12 0 -16 18 -16 27 0 31 9 9 27 -8 7 -15 9 -15 6 0 -4 -10 -1 -22 6 -33
18 -58 21 -35 4z"/>
<path d="M6930 6161 c0 -5 6 -12 13 -14 9 -4 8 -8 -3 -16 -8 -5 -11 -13 -7
-18 9 -8 27 14 27 33 0 7 -7 14 -15 18 -8 3 -15 1 -15 -3z"/>
<path d="M2482 5624 c9 -9 21 -15 27 -13 6 2 -2 10 -17 17 -25 11 -25 11 -10
-4z"/>
<path d="M7903 5633 c-13 -2 -23 -9 -23 -14 0 -13 13 -11 36 6 10 8 17 14 14
13 -3 0 -15 -3 -27 -5z"/>
<path d="M8834 5313 c-9 -53 -19 -70 -84 -140 -75 -80 -95 -131 -85 -217 3
-36 11 -68 15 -71 5 -3 16 8 25 24 8 17 40 49 69 70 93 69 134 193 102 304
-20 70 -33 79 -42 30z"/>
<path d="M1546 5331 c-3 -4 -12 -34 -20 -65 -30 -113 11 -223 110 -298 30 -23
62 -55 70 -71 23 -44 35 -21 36 69 1 97 -9 119 -98 214 -53 56 -67 77 -71 110
-6 41 -17 58 -27 41z"/>
<path d="M4790 2519 c-540 -7 -638 -11 -1090 -45 -373 -28 -540 -45 -763 -80
-88 -13 -177 -24 -198 -24 -42 0 -106 -27 -130 -56 -10 -12 -14 -47 -15 -128
l0 -110 -30 -9 c-16 -4 -88 -6 -159 -2 -111 4 -134 3 -154 -11 -21 -15 -23
-21 -17 -73 29 -241 29 -243 -43 -500 -41 -148 -39 -167 19 -203 47 -29 195
-73 211 -63 5 4 9 42 9 86 0 43 3 79 8 79 4 0 61 -14 127 -32 111 -29 133 -32
285 -32 183 -1 253 13 309 60 l31 26 0 168 0 169 33 5 c46 8 355 34 542 46 88
5 192 12 230 15 162 13 775 25 1255 25 497 1 868 -9 1150 -30 74 -5 209 -14
300 -20 245 -15 431 -31 470 -39 l35 -7 -4 -156 c-1 -86 0 -166 4 -177 16 -51
160 -91 332 -91 94 0 137 6 262 35 82 19 154 35 160 35 7 0 11 -28 11 -80 l0
-80 28 0 c57 0 206 56 224 84 16 24 6 87 -34 226 -37 126 -42 158 -43 245 0
55 4 137 8 182 l9 81 -29 15 c-22 12 -58 15 -158 12 -72 -2 -142 -1 -157 2
l-28 5 0 118 c0 148 -10 160 -150 175 -36 3 -72 8 -80 10 -65 18 -539 74 -800
95 -328 25 -413 30 -715 40 -447 14 -708 16 -1255 9z m-315 -284 l0 -230 -42
-3 c-34 -2 -43 0 -43 12 0 20 -3 20 -42 -4 -64 -39 -150 -17 -195 51 -37 56
-42 150 -11 203 29 49 63 75 110 82 47 8 77 0 106 -26 l22 -21 0 79 c0 43 3
82 7 86 4 4 25 6 48 4 l40 -3 0 -230z m536 92 c52 -35 59 -57 59 -199 l0 -128
-29 0 c-16 0 -37 7 -46 16 -14 15 -18 15 -49 0 -54 -26 -128 -21 -165 10 -26
22 -31 33 -31 70 0 64 27 88 116 103 102 19 106 20 102 44 -4 31 -50 45 -91
28 -46 -19 -80 -23 -97 -12 -20 14 3 55 44 75 49 24 146 21 187 -7z m362 3
c30 -24 37 -25 37 -5 0 11 12 15 45 15 l45 0 0 -175 c0 -201 -6 -222 -70 -255
-27 -14 -59 -20 -105 -20 -72 0 -120 16 -149 48 -37 42 26 70 84 37 55 -31
123 -11 140 41 16 46 5 58 -29 33 -34 -25 -105 -28 -149 -5 -103 53 -104 215
-2 283 43 30 117 31 153 3z m450 6 c61 -26 107 -93 107 -157 l0 -29 -125 0
c-138 0 -149 -6 -100 -55 29 -29 74 -33 115 -9 27 16 59 15 89 -5 19 -12 8
-26 -45 -57 -34 -20 -58 -26 -103 -26 -87 0 -135 30 -166 105 -61 147 83 295
228 233z m-1826 -24 c47 -34 66 -83 61 -163 -4 -73 -20 -104 -72 -143 -40 -31
-126 -29 -159 2 -21 20 -25 21 -31 7 -3 -9 -6 -45 -6 -80 0 -67 -7 -74 -67
-75 l-23 0 0 235 0 235 44 0 c31 0 46 -5 50 -16 6 -15 8 -15 24 -2 26 24 43
28 98 25 32 -2 62 -11 81 -25z m2107 5 c-2 -23 9 -21 31 3 14 15 31 20 73 20
48 0 58 -4 88 -34 l34 -34 0 -141 0 -141 -45 0 -45 0 0 120 c0 107 -2 122 -20
140 -27 27 -66 25 -95 -5 -24 -23 -25 -31 -25 -135 l0 -110 -45 0 -45 0 0 163
c0 90 2 166 5 168 2 3 24 5 47 4 34 -1 43 -5 42 -18z m549 9 c36 -15 90 -72
84 -90 -2 -6 -21 -14 -43 -18 -34 -5 -41 -3 -57 18 -38 50 -117 22 -130 -46
-19 -93 68 -167 129 -109 19 18 28 20 60 12 21 -4 39 -13 41 -19 7 -20 -56
-73 -99 -85 -116 -31 -228 52 -228 169 0 131 125 218 243 168z m-3123 -19 c90
-48 116 -167 55 -259 -72 -108 -252 -100 -311 14 -23 45 -16 153 14 195 50 70
161 93 242 50z m3357 9 c2 -2 17 -49 34 -107 18 -57 35 -108 39 -112 6 -7 52
111 75 190 3 12 15 25 26 28 22 7 79 -3 79 -14 0 -4 -36 -93 -80 -197 -56
-131 -89 -197 -110 -216 -35 -32 -91 -45 -126 -29 -21 9 -25 17 -22 44 3 29 6
32 33 30 35 -3 65 22 65 54 0 18 -52 165 -116 327 -6 17 -3 18 47 11 30 -4 55
-8 56 -9z m-2220 -232 c15 -24 15 -29 2 -53 -11 -20 -22 -26 -49 -26 -27 0
-38 6 -49 26 -13 24 -13 29 2 53 12 18 26 26 47 26 21 0 35 -8 47 -26z m212
-223 c24 0 42 -3 40 -5 -7 -7 -544 -18 -537 -11 7 7 329 21 413 19 22 -1 60
-2 84 -3z m709 -8 c-16 -2 -40 -2 -55 0 -16 2 -3 4 27 4 30 0 43 -2 28 -4z
m105 0 c-13 -2 -33 -2 -45 0 -13 2 -3 4 22 4 25 0 35 -2 23 -4z m124 1 c-3 -3
-12 -4 -19 -1 -8 3 -5 6 6 6 11 1 17 -2 13 -5z m286 -11 c-34 -2 -93 -2 -130
0 -37 2 -9 3 62 3 72 0 102 -1 68 -3z m-2006 -9 c-3 -3 -12 -4 -19 -1 -8 3 -5
6 6 6 11 1 17 -2 13 -5z m61 -1 c-10 -2 -26 -2 -35 0 -10 3 -2 5 17 5 19 0 27
-2 18 -5z m-770 -50 c-16 -2 -40 -2 -55 0 -16 2 -3 4 27 4 30 0 43 -2 28 -4z
m3650 0 c-10 -2 -26 -2 -35 0 -10 3 -2 5 17 5 19 0 27 -2 18 -5z m-3770 -10
c-16 -2 -40 -2 -55 0 -16 2 -3 4 27 4 30 0 43 -2 28 -4z m3865 0 c-7 -2 -21
-2 -30 0 -10 3 -4 5 12 5 17 0 24 -2 18 -5z m-3970 -10 c-13 -2 -33 -2 -45 0
-13 2 -3 4 22 4 25 0 35 -2 23 -4z m4075 0 c-10 -2 -26 -2 -35 0 -10 3 -2 5
17 5 19 0 27 -2 18 -5z m-4160 -10 c-10 -2 -26 -2 -35 0 -10 3 -2 5 17 5 19 0
27 -2 18 -5z m-629 -334 c11 -7 -6 -8 -54 -5 -38 3 -81 6 -95 7 -23 1 -23 2 5
9 35 10 122 3 144 -11z m5616 1 c-11 -5 -47 -8 -80 -8 -44 0 -54 2 -35 8 35
11 141 11 115 0z"/>
<path d="M4259 2257 c-46 -35 -52 -110 -13 -156 32 -38 72 -41 110 -7 24 20
28 31 28 76 0 45 -4 56 -28 76 -29 26 -72 31 -97 11z"/>
<path d="M4883 2149 c-63 -18 -48 -83 19 -81 38 1 68 31 68 68 0 20 -5 24 -27
23 -16 0 -42 -5 -60 -10z"/>
<path d="M5277 2260 c-55 -43 -40 -136 24 -159 89 -31 148 99 72 159 -33 25
-63 25 -96 0z"/>
<path d="M5706 2259 c-47 -37 -35 -49 49 -49 53 0 75 4 75 13 0 18 -12 32 -37
46 -32 16 -57 14 -87 -10z"/>
<path d="M3827 2246 c-29 -22 -40 -68 -27 -115 19 -73 80 -92 131 -42 61 61
27 171 -53 171 -18 0 -41 -7 -51 -14z"/>
<path d="M3382 2230 c-40 -37 -37 -115 5 -162 24 -27 79 -23 110 8 23 23 25
31 21 81 -4 43 -10 61 -28 75 -29 24 -81 23 -108 -2z"/>
<path d="M3477 1673 c-4 -3 -7 -70 -7 -147 0 -78 -4 -147 -9 -155 -11 -17 -50
-9 -142 29 -56 23 -69 25 -73 13 -9 -22 -7 -266 2 -279 21 -30 174 -83 337
-115 205 -40 448 -44 491 -8 10 8 14 49 16 137 l3 127 1098 3 1097 2 0 -122
c1 -87 5 -128 14 -141 50 -65 436 -36 728 55 76 23 99 35 105 51 6 21 5 288
-2 295 -2 2 -17 -4 -34 -12 -36 -19 -141 -45 -158 -39 -10 4 -13 42 -13 148 0
131 -2 145 -19 154 -12 7 -64 8 -142 4 -163 -10 -2712 -10 -3035 0 -138 4
-254 4 -257 0z m393 -90 c-1 -5 -14 -24 -30 -43 -17 -19 -30 -38 -30 -43 0 -5
16 -28 35 -51 31 -38 36 -56 15 -56 -4 0 -21 20 -39 45 -27 37 -36 44 -47 34
-8 -6 -14 -27 -14 -45 0 -19 -4 -34 -10 -34 -6 0 -10 38 -10 95 0 57 4 95 10
95 6 0 10 -18 10 -40 0 -22 3 -40 6 -40 4 0 24 20 46 45 37 42 59 56 58 38z
m160 -99 c0 -72 -3 -95 -12 -92 -9 3 -14 34 -16 96 -2 77 0 92 13 92 12 0 15
-16 15 -96z m320 86 c0 -5 -13 -10 -30 -10 l-30 0 0 -80 c0 -64 -3 -80 -15
-80 -12 0 -15 16 -15 80 l0 80 -30 0 c-16 0 -30 5 -30 10 0 6 32 10 75 10 43
0 75 -4 75 -10z m155 -14 c17 -25 8 -70 -16 -78 -9 -3 -7 -14 9 -40 25 -41 27
-48 10 -48 -7 0 -23 18 -36 41 -30 52 -56 50 -60 -4 -2 -24 -8 -37 -15 -34 -8
2 -13 36 -15 95 l-3 92 55 0 c47 0 58 -4 71 -24z m161 -67 c38 -97 39 -99 20
-99 -8 0 -17 11 -20 25 -5 21 -12 25 -46 25 -34 0 -42 -4 -50 -25 -9 -23 -30
-35 -30 -17 0 8 58 160 66 174 13 20 29 -2 60 -83z m94 -4 c0 -52 -4 -95 -9
-95 -11 0 -26 164 -17 179 18 29 26 3 26 -84z m127 28 l48 -68 3 68 c2 52 6
67 18 67 13 0 15 -14 12 -92 -3 -51 -9 -93 -15 -95 -5 -2 -32 29 -59 68 l-49
72 -3 -72 c-2 -51 -6 -71 -15 -68 -8 2 -13 35 -15 95 -3 115 8 119 75 25z
m153 -28 c0 -57 -4 -95 -10 -95 -6 0 -10 38 -10 95 0 57 4 95 10 95 6 0 10
-38 10 -95z m122 30 c24 -35 47 -65 52 -65 4 0 6 28 5 62 -3 43 0 62 9 65 9 4
12 -19 12 -92 0 -59 -4 -95 -10 -93 -5 2 -32 34 -60 73 l-50 69 0 -73 c0 -54
-3 -72 -12 -69 -9 3 -14 34 -16 96 -3 115 10 120 70 27z m263 45 c24 -26 13
-37 -17 -16 -30 21 -54 20 -78 -4 -39 -39 -14 -130 36 -130 45 0 74 46 32 52
-38 5 -33 28 6 28 35 0 36 -1 36 -40 0 -44 -18 -60 -69 -60 -49 0 -81 36 -83
94 -1 42 3 52 26 73 34 29 86 31 111 3z m239 -71 c20 -50 35 -94 32 -97 -8 -8
-36 19 -36 34 0 10 -13 14 -40 14 -33 0 -42 -4 -52 -25 -12 -26 -28 -34 -28
-14 0 26 64 179 75 179 6 0 28 -41 49 -91z m187 72 c32 -26 20 -35 -20 -15
-29 14 -34 14 -55 1 -42 -28 -39 -103 7 -131 13 -8 25 -7 49 7 37 21 48 15 23
-13 -45 -50 -135 -6 -135 65 0 39 22 90 42 98 28 11 67 6 89 -12z m170 -76
c22 -50 39 -91 39 -92 0 -2 -7 -3 -15 -3 -9 0 -20 11 -25 25 -8 21 -16 25 -48
25 -32 0 -41 -5 -50 -25 -10 -21 -32 -35 -32 -20 0 20 75 185 83 182 5 -1 27
-43 48 -92z m183 74 c22 -17 26 -28 26 -69 0 -68 -22 -92 -91 -98 l-55 -4 -1
96 -1 96 48 0 c33 0 55 -6 74 -21z m186 11 c0 -5 -23 -10 -51 -10 -49 0 -50
-1 -47 -27 3 -25 7 -28 46 -31 56 -4 54 -22 -4 -22 -45 0 -45 0 -42 -32 3 -32
5 -33 51 -36 68 -4 58 -22 -13 -22 l-60 0 0 95 0 95 60 0 c33 0 60 -4 60 -10z
m94 -42 c12 -29 26 -62 30 -73 6 -16 13 -7 36 50 16 41 34 71 44 73 14 3 16
-9 16 -92 0 -109 -18 -132 -22 -28 l-3 67 -33 -70 c-29 -60 -35 -67 -43 -50
-5 11 -19 43 -31 70 l-23 50 -3 -67 c-4 -103 -22 -82 -22 27 0 79 3 95 16 95
9 0 24 -21 38 -52z m210 7 c15 -25 29 -45 31 -45 2 0 16 20 31 45 14 25 30 45
35 45 14 0 12 -6 -21 -63 -18 -33 -30 -68 -30 -90 0 -26 -4 -37 -15 -37 -11 0
-15 11 -15 38 0 23 -11 56 -30 87 -32 53 -35 65 -21 65 5 0 21 -20 35 -45z
m-2749 -124 c7 -12 -12 -24 -25 -16 -11 7 -4 25 10 25 5 0 11 -4 15 -9z m153
-3 c-6 -18 -28 -21 -28 -4 0 9 7 16 16 16 9 0 14 -5 12 -12z m52 -115 c2 -2
-15 -2 -38 -1 -23 2 -42 7 -42 11 0 7 70 -1 80 -10z m1796 5 c4 -5 -310 -8
-697 -8 -387 0 -698 4 -691 9 16 10 1378 9 1388 -1z m-2283 -5 c-7 -2 -19 -2
-25 0 -7 3 -2 5 12 5 14 0 19 -2 13 -5z m125 0 c-21 -2 -55 -2 -75 0 -21 2 -4
4 37 4 41 0 58 -2 38 -4z m455 0 c-13 -2 -33 -2 -45 0 -13 2 -3 4 22 4 25 0
35 -2 23 -4z m294 1 c-3 -3 -12 -4 -19 -1 -8 3 -5 6 6 6 11 1 17 -2 13 -5z
m1666 -1 c-7 -2 -19 -2 -25 0 -7 3 -2 5 12 5 14 0 19 -2 13 -5z m84 1 c-3 -3
-12 -4 -19 -1 -8 3 -5 6 6 6 11 1 17 -2 13 -5z"/>
<path d="M4410 1525 c0 -32 2 -35 30 -35 19 0 33 7 40 21 15 27 -3 49 -41 49
-26 0 -29 -3 -29 -35z"/>
<path d="M4601 1499 c-14 -41 -15 -39 18 -39 29 0 29 1 18 35 -13 43 -22 44
-36 4z"/>
<path d="M5602 1505 c-17 -37 -15 -45 13 -45 28 0 31 13 12 48 l-13 23 -12
-26z"/>
<path d="M5961 1507 c-16 -41 -14 -47 15 -47 22 0 24 3 18 23 -14 48 -22 54
-33 24z"/>
<path d="M6115 1548 c-4 -9 -5 -42 -3 -74 3 -52 6 -59 25 -62 51 -7 93 77 61
121 -18 24 -76 34 -83 15z"/>
</g>
</svg>
